<?xml version="1.0" standalone="no"?>
<!DOCTYPE svg PUBLIC "-//W3C//DTD SVG 1.1//EN" "http://www.w3.org/Graphics/SVG/1.1/DTD/svg11.dtd" >
<svg xmlns="http://www.w3.org/2000/svg">
<metadata>
<json>
<![CDATA[
{
	"fontFamily": "entribe",
	"majorVersion": 1,
	"minorVersion": 0,
	"version": "Version 1.0",
	"fontId": "entribe",
	"psName": "entribe",
	"subFamily": "Regular",
	"fullName": "entribe",
	"description": "Font generated by IcoMoon."
}
]]>
</json>
</metadata>
<defs>
<font id="entribe" horiz-adv-x="1024">
<font-face units-per-em="1024" ascent="960" descent="-64" />
<missing-glyph horiz-adv-x="1024" />
<glyph unicode="&#x20;" horiz-adv-x="512" d="" />
<glyph unicode="&#xe900;" glyph-name="calendar" data-tags="calendar" d="M373.080 395.060c0 12.824-10.396 23.22-23.22 23.22-0.007 0-0.014 0-0.021 0h-81.099c-12.824 0-23.22-10.396-23.22-23.22v0-81.060c0-12.828 10.394-23.229 23.219-23.24h81.101c0.006 0 0.013 0 0.020 0 12.824 0 23.22 10.396 23.22 23.22 0 0.007 0 0.014 0 0.021v-0.001zM575.78 395.060c0 12.824-10.396 23.22-23.22 23.22v0h-81.12c-12.828 0-23.229-10.394-23.24-23.219v-81.061c0-12.835 10.405-23.24 23.24-23.24v0h81.12c12.826 0.011 23.22 10.412 23.22 23.24v0zM778.5 395.060c0 12.824-10.396 23.22-23.22 23.22v0h-81.12c-12.828 0-23.229-10.394-23.24-23.219v-81.061c0-12.835 10.405-23.24 23.24-23.24v0h81.12c12.826 0.011 23.22 10.412 23.22 23.24v0zM373.080 192.34c0 0.006 0 0.013 0 0.020 0 12.824-10.396 23.22-23.22 23.22-0.007 0-0.014 0-0.021 0h-81.099c-12.824 0-23.22-10.396-23.22-23.22 0-0.007 0-0.014 0-0.021v0.001-81.080c0-0.006 0-0.013 0-0.020 0-12.828 10.394-23.229 23.219-23.24h81.101c0.006 0 0.013 0 0.020 0 12.824 0 23.22 10.396 23.22 23.22v0zM575.78 192.34c0 0.006 0 0.013 0 0.020 0 12.824-10.396 23.22-23.22 23.22h-81.12c-0.006 0-0.013 0-0.020 0-12.824 0-23.22-10.396-23.22-23.22 0-0.007 0-0.014 0-0.021v0.001-81.080c0-0.006 0-0.013 0-0.020 0-12.835 10.405-23.24 23.24-23.24h81.12c12.824 0 23.22 10.396 23.22 23.22v0zM778.5 192.34c0 0.006 0 0.013 0 0.020 0 12.824-10.396 23.22-23.22 23.22h-81.12c-0.006 0-0.013 0-0.020 0-12.824 0-23.22-10.396-23.22-23.22 0-0.007 0-0.014 0-0.021v0.001-81.080c0-0.006 0-0.013 0-0.020 0-12.835 10.405-23.24 23.24-23.24h81.12c12.824 0 23.22 10.396 23.22 23.22v0zM923.52 846v-123.86c-0.045-55.846-45.328-101.1-101.18-101.1-0.077 0-0.155 0-0.232 0h-63.988c-56 0-102 45.12-102 101.1v124.28h-288.26v-124.32c0-56-46-101.1-102-101.1h-64c-0.071 0-0.156 0-0.24 0-55.848 0-101.126 45.257-101.16 101.097v123.903c-49.427-1.714-88.873-42.084-89.1-91.718v-726.022c0 0 0-0.001 0-0.001 0-50.785 41.033-91.986 91.754-92.259h817.746c50.62 0 91.78 41.72 91.78 92.34v726c-0.271 49.629-39.712 89.958-88.964 91.656l-0.156 0.004zM893.82 73.54c0-21.915-17.765-39.68-39.68-39.68v0h-686c-21.915 0-39.68 17.765-39.68 39.68v0 374.98c0.011 21.903 17.758 39.657 39.658 39.68h686.002c21.915 0 39.68-17.765 39.68-39.68 0-0.007 0-0.014 0-0.021v0.001zM201.66 687.42h63.26c0.006 0 0.013 0 0.020 0 19.197 0 34.76 15.563 34.76 34.76v0 203.060c0 19.197-15.563 34.76-34.76 34.76-0.007 0-0.014 0-0.021 0h-63.259c-0.006 0-0.013 0-0.020 0-19.197 0-34.76-15.563-34.76-34.76v0-203.080c0-19.197 15.563-34.76 34.76-34.76 0.007 0 0.014 0 0.021 0h-0.001zM757.34 687.42h63.26c19.197 0 34.76 15.563 34.76 34.76v0 203.060c0 19.19-15.551 34.749-34.739 34.76h-63.281c-0.006 0-0.013 0-0.020 0-19.197 0-34.76-15.563-34.76-34.76v0-203.080c0-19.197 15.563-34.76 34.76-34.76 0.007 0 0.014 0 0.021 0h-0.001z" />
<glyph unicode="&#xe901;" glyph-name="eye" data-tags="eye" d="M1006.4 470.24c-2 2.62-51.68 64.86-136.74 127.36-113.66 83.5-237.34 127.64-357.66 127.64s-244-44.14-357.68-127.64c-85.040-62.5-134.66-124.74-136.74-127.36l-17.58-22.24 17.58-22.24c2-2.62 51.68-64.86 136.74-127.36 113.68-83.5 237.36-127.64 357.68-127.64s244 44.14 357.66 127.66c85.060 62.5 134.68 124.74 136.74 127.36l17.6 22.22zM512 253.78c-107.249 0.065-194.167 87.022-194.167 194.28 0 17.256 2.25 33.987 6.472 49.915l-0.305-1.355-44.42 7.38c-4.232-16.823-6.661-36.136-6.661-56.016 0-69.228 29.451-131.578 76.507-175.203l0.154-0.141c-60.66 22.42-112.26 53.86-151.18 82.3-38.949 28.71-73.267 59.253-104.579 92.649l-0.381 0.411c31.703 33.771 66.033 64.288 102.934 91.524l2.066 1.456c38.92 28.44 90.52 59.88 151.18 82.3l29.76-33.54c34.615 32.437 81.3 52.36 132.638 52.36 107.243 0 194.18-86.937 194.18-194.18s-86.936-194.179-194.178-194.18v0zM825.56 355.020c-38.94-28.44-90.52-59.88-151.18-82.3 47.218 43.738 76.677 106.069 76.677 175.28s-29.459 131.542-76.521 175.138l-0.155 0.142c60.66-22.4 112.24-53.86 151.18-82.3 38.968-28.69 73.299-59.208 104.627-92.578l0.373-0.402c-31.701-33.774-66.031-64.292-102.935-91.525l-2.065-1.455zM388.4 485.76c-3.589-11.321-5.657-24.341-5.657-37.844 0-71.466 57.934-129.4 129.4-129.4s129.4 57.934 129.4 129.4c0 71.466-57.934 129.4-129.4 129.4-34.867 0-66.514-13.79-89.783-36.215l0.040 0.038 63.74-71.84z" />
<glyph unicode="&#xe902;" glyph-name="fb-icon" data-tags="fb-icon" d="M768 959.8l-132.8 0.2c-149.2 0-245.62-98.92-245.62-252v-116.22h-133.58c-11.521 0-20.86-9.339-20.86-20.86v0-168.38c0.011-11.516 9.344-20.849 20.859-20.86h133.541v-424.82c0.023-11.526 9.371-20.86 20.9-20.86 0.014 0 0.028 0 0.042 0h174.158c0 0 0 0 0 0 11.529 0 20.877 9.334 20.9 20.858v424.822h156.1c11.521 0 20.86 9.339 20.86 20.86v168.38c-0.032 5.764-2.371 10.975-6.141 14.761l0.001-0.001c-3.761 3.709-8.929 6-14.632 6-0.045 0-0.090 0-0.135 0h-156.053v98.62c0 47.34 11.3 71.38 72.94 71.38h89.48c11.512 0.011 20.84 9.346 20.84 20.86 0 0.014 0 0.028 0 0.042v-0.002 156.3c0 0.012 0 0.026 0 0.040 0 11.504-9.303 20.834-20.796 20.88h-0.004z" />
<glyph unicode="&#xe903;" glyph-name="google-plus" data-tags="google-plus" d="M874.98 528v129.46h-86.52v-129.46h-129.52v-86.52h129.5v-129.48h86.52v129.44h129.5v86.56zM542.3 381.12l-47.48 34.62c-17.34 12.86-34.62 30.14-34.62 60.32s21.54 56.12 43.26 69.18c56.12 43.26 112.22 90.72 112.22 185.88 0 90.68-56.12 142.36-86.3 168.34h73.44l51.92 60.54h-268c-190.020 0-285.12-120.86-285.12-250.64 0-99.36 77.82-207.36 216.020-207.36h34.56c-4.42-12.9-17.28-34.62-17.28-56.16 0-43.2 17.28-60.54 38.82-86.46-60.38-4.22-172.82-17.28-254.86-68.96-77.86-47.66-99.36-112.42-99.36-159.9 0-99.38 90.72-194.52 285.2-194.52 233.28 0 345.58 129.72 345.58 255.060 0 90.68-47.48 138.14-108 190zM214 774.16c0 95.1 56.12 138.36 116.66 138.36 112.22 0 172.76-151.28 172.76-237.74 0-112.22-90.72-134-125.3-134-108 0-164.12 134-164.12 233.36zM369.42-3.46c-142.58 0-233.3 64.76-233.3 160s86.52 125.3 112.22 138.2c56.32 17.28 129.78 21.5 142.62 21.5h30.36c103.58-73.4 146.84-103.58 146.84-172.76 0-82-82-146.84-198.74-146.84z" />
<glyph unicode="&#xe904;" horiz-adv-x="5938" d="M476.166 960h16.352c34.129-2.762 63.681-20.269 82.579-46.069l0.222-0.318c13.33-18.182 21.33-40.998 21.33-65.682 0-55.185-39.985-101.031-92.564-110.146l-0.667-0.096c0-62.971 0-125.942 0-188.912 27.772-3.414 52.585-13.956 73.189-29.721l-0.361 0.265 239.011 238.431c-8.485 15.428-13.477 33.81-13.477 53.359 0 62.062 50.311 112.373 112.373 112.373s112.373-50.311 112.373-112.373c0-62.062-50.311-112.373-112.373-112.373-29.205 0-55.807 11.141-75.789 29.404l0.086-0.078q-117.824-117.592-235.416-235.3c19.461-24.881 31.207-56.615 31.207-91.093s-11.745-66.212-31.453-91.42l0.246 0.327q71.32-71.205 142.641-142.409c10.936 6.354 24.065 10.105 38.071 10.105 9.565 0 18.722-1.749 27.168-4.946l-0.528 0.175c28.186-11.030 47.786-37.983 47.786-69.512 0-41.119-33.333-74.452-74.452-74.452-33.228 0-61.373 21.768-70.95 51.822l-0.145 0.527c-2.278 6.746-3.593 14.516-3.593 22.593 0 13.557 3.704 26.249 10.156 37.119l-0.185-0.336q-71.436 71.205-142.873 142.409c-24.962-19.46-56.772-31.202-91.325-31.202s-66.363 11.741-91.658 31.452l0.333-0.25q-91.963-91.151-182.998-182.65c8.455-15.406 13.429-33.757 13.429-53.271 0-16.752-3.665-32.647-10.238-46.928l0.288 0.698c-17.015-36.163-51.523-61.595-92.316-65.487l-0.459-0.035h-16.815c-55.925 4.079-100.292 48.446-104.35 104.004l-0.022 0.368v12.757c3.288 59.222 52.113 106 111.863 106 28.929 0 55.296-10.965 75.173-28.966l-0.095 0.085q89.991 90.223 179.983 180.331c-19.516 24.902-31.297 56.68-31.297 91.209s11.78 66.307 31.542 91.534l-0.245-0.324q-71.32 70.973-142.757 142.293c-10.806-6.449-23.833-10.261-37.75-10.261-41.183 0-74.568 33.385-74.568 74.568s33.385 74.568 74.568 74.568c41.183 0 74.568-33.385 74.568-74.568 0-13.917-3.813-26.944-10.45-38.092l0.189 0.343q71.436-71.32 142.757-142.525c20.18 15.577 44.874 26.287 71.809 29.948l0.787 0.088q0 94.398 0 188.796c-41.071 7.461-73.976 36.241-87.199 74.237l-0.241 0.794c-3.612 10.515-5.698 22.632-5.698 35.235 0 27.415 9.868 52.526 26.247 71.973l-0.139-0.169c18.979 22.226 46.095 37.020 76.682 39.746l0.437 0.031z" />
<glyph unicode="&#xe905;" horiz-adv-x="5938" d="M1472.797 190.666c0 54.389-0.696 108.778 0 163.051 109.358-0.58 218.832 0 328.306 0q0 99.733 0 199.581c-109.59 0-219.18 0-328.77 0 0 50.794 0 101.588 0 152.382 120.375 0 240.866 0 361.241 0q0 101.24 0 202.365h-542.036c-0.56 0.041-1.214 0.064-1.873 0.064-10.169 0-19.048-5.523-23.802-13.732l-0.071-0.132c-2.382-5.605-3.766-12.124-3.766-18.966 0-2.226 0.147-4.419 0.431-6.567l-0.027 0.252q0-360.198 0-720.395c-0.008-0.609-0.013-1.329-0.013-2.050 0-73.118 49.792-134.606 117.318-152.406l1.099-0.246c16.564-3.503 35.597-5.508 55.099-5.508 5.993 0 11.941 0.189 17.84 0.563l-0.806-0.041h388.146q0 101.24 0 202.365c-122.694-0.58-245.273-0.232-368.315-0.58z" />
<glyph unicode="&#xe906;" horiz-adv-x="5938" d="M2656.37 907.698h-104.371c-3.947 0.354-8.538 0.556-13.176 0.556-14.368 0-28.283-1.938-41.498-5.568l1.097 0.257c-26.821-9.655-46.603-32.714-51.424-60.881l-0.066-0.466c-0.871-9.277-1.367-20.060-1.367-30.959 0-4.243 0.075-8.468 0.224-12.675l-0.017 0.61c0-129.537 0-259.189 0-388.726-20.874 27.832-40.473 56.708-60.883 84.889q-146.7 206.424-293.98 412.847h-78.858c-0.073 0-0.158 0-0.244 0-43.488 0-78.742-35.254-78.742-78.742 0-0.489 0.004-0.978 0.013-1.465l-0.001 0.073v-681.894c0.19-83.811 65.819-152.232 148.49-156.887l0.413-0.019c20.41-0.812 40.937 0 61.347 0 0.928 166.067 0 332.133 0 498.664 118.752-165.603 236.343-332.017 354.747-497.852 52.534 0 105.183 0 157.717 0 0.696 17.975 0 35.95 0 53.809q0.58 431.634 0.58 864.428z" />
<glyph unicode="&#xe907;" horiz-adv-x="5938" d="M2802.258 907.582c-0.341 0.005-0.744 0.008-1.147 0.008-16.374 0-31.595-4.94-44.253-13.41l0.289 0.182c-20.273-13.747-33.699-36.277-34.785-61.999l-0.005-0.16c-0.501-4.615-0.787-9.967-0.787-15.386 0-17.065 2.835-33.467 8.060-48.762l-0.315 1.061c15.102-37.053 50.465-62.876 91.967-63.781l0.112-0.002c46.387 0 91.615 0 137.422 0q0-279.831 0-559.663c0.259-79.553 59.421-145.21 136.142-155.654l0.816-0.091c24.353-2.551 49.055-0.928 73.524-1.392 0 239.011 0 477.905 0 716.916 78.858 0 157.601 0 236.459 0 0 67.494 0 134.987 0 202.365z" />
<glyph unicode="&#xe908;" horiz-adv-x="5938" d="M4153.172 555.039c1.499 11.527 2.354 24.858 2.354 38.39 0 172.905-139.683 313.186-312.361 314.153h-0.092c-97.181 0-194.363 0-291.544 0-0.314 0.005-0.685 0.007-1.056 0.007-43.488 0-78.742-35.254-78.742-78.742 0-0.492 0.005-0.983 0.013-1.472l-0.001 0.074q0-313.114 0-626.229c0-24.121-1.044-48.359 0.928-72.48 7.27-61.237 48.627-111.244 104.309-130.935l1.106-0.341c33.399-12.177 69.581-7.654 104.371-8.582q0 150.759 0 301.518c33.399 0 66.682 0 99.965 0q86.512-150.759 173.952-301.518h226.37q-98.109 168.618-195.986 337.468c87.979 44.611 150.748 127.95 166.193 226.962l0.222 1.728zM3942.922 569.187c-6.112-41.030-33.463-74.472-70.322-89.143l-0.766-0.269c-13.199-3.839-28.361-6.047-44.039-6.047-4.909 0-9.767 0.216-14.566 0.64l0.621-0.044h-131.624c0 78.627 0 157.253 0 235.88 52.070 0.58 104.371 0 156.209 0 0.352 0.005 0.767 0.007 1.183 0.007 24.272 0 46.495-8.772 63.671-23.32l-0.144 0.119c25.852-23.203 42.041-56.726 42.041-94.029 0-8.416-0.824-16.64-2.396-24.596l0.132 0.801z" />
<glyph unicode="&#xe909;" horiz-adv-x="5938" d="M4317.383 905.959c-36.378-7.709-63.28-39.554-63.28-77.683 0-1.229 0.028-2.452 0.083-3.667l-0.006 0.172q0-322.856 0-645.711c-0.353-5.253-0.555-11.386-0.555-17.566 0-19.56 2.018-38.649 5.856-57.070l-0.315 1.807c14.008-52.554 53.054-93.667 103.254-110.313l1.117-0.321c32.587-11.597 67.378-6.726 101.124-7.538q0 459.582 0 919.165h-115.852c-2.717 0.161-5.895 0.252-9.094 0.252-7.877 0-15.624-0.555-23.204-1.629l0.871 0.101z" />
<glyph unicode="&#xe90a;" horiz-adv-x="5938" d="M5167.199 464.815c21.734 19.242 39.827 41.998 53.519 67.47l0.638 1.299c16.436 32.68 26.059 71.219 26.059 112.006 0 15.912-1.465 31.481-4.266 46.581l0.241-1.565c-8.323 49.16-30.25 92.17-61.728 126.221l0.149-0.163c-56.013 60.535-139.162 90.223-220.34 90.803-94.746 0-189.492 0-284.238 0-0.47 0.010-1.024 0.016-1.579 0.016-25.307 0-47.854-11.816-62.424-30.233l-0.127-0.166c-10.446-13.523-16.744-30.715-16.744-49.377 0-0.947 0.016-1.89 0.048-2.829l-0.004 0.136q0-338.627 0-677.139c-0.007-0.556-0.011-1.213-0.011-1.871 0-86.334 69.368-156.466 155.408-157.7l0.116-0.001c75.495 0 150.759 0 226.37 0 1.145-0.013 2.497-0.020 3.851-0.020 27.764 0 54.815 3.049 80.838 8.83l-2.468-0.46c69.485 14.417 128.341 52.429 169.175 105.111l0.486 0.652c29.121 39.377 47.282 88.427 49.158 141.621l0.012 0.441c0.268 4.349 0.421 9.432 0.421 14.551 0 40.89-9.752 79.502-27.058 113.637l0.66-1.435c-20.243 38.839-49.529 70.504-85.179 93.006l-0.986 0.581zM4806.654 710.436h120.491c20.874 0 42.792 2.203 62.623-6.262 21.397-8.969 37.383-27.165 43.144-49.473l0.112-0.51c2.327-7.4 3.667-15.91 3.667-24.733 0-27.102-12.649-51.25-32.366-66.862l-0.178-0.136c-14.741-9.54-32.759-15.211-52.101-15.211-3.789 0-7.527 0.218-11.202 0.641l0.448-0.042h-134.639q0 81.294 0 162.588zM5065.147 243.896c-7.146-24.594-25.237-43.905-48.507-52.587l-0.547-0.179c-13.738-3.979-29.518-6.268-45.832-6.268-4.971 0-9.893 0.213-14.757 0.629l0.633-0.044h-149.483q0 87.904 0 175.692h171.285c1.728 0.118 3.746 0.185 5.779 0.185 21.711 0 41.638-7.639 57.239-20.376l-0.163 0.129c17.919-17.208 29.053-41.366 29.053-68.125 0-10.385-1.677-20.378-4.775-29.723l0.191 0.667z" />
<glyph unicode="&#xe90b;" horiz-adv-x="5938" d="M5937.576 190.782h-368.199q0 81.178 0 162.356h328.77q0 99.849 0 199.697h-328.77q0 75.959 0 152.034h361.589c0 67.494 0 134.987 0 202.481q-236.691 0-473.383 0c-3.1 0.256-6.711 0.403-10.355 0.403-12.321 0-24.251-1.671-35.577-4.798l0.937 0.221c-26.858-9.253-46.853-31.868-52.222-59.692l-0.080-0.495c-1.051-10.107-1.651-21.837-1.651-33.707 0-4.704 0.094-9.386 0.281-14.045l-0.021 0.669v-645.48c-0.022-1.003-0.035-2.186-0.035-3.372 0-20.844 3.928-40.771 11.084-59.080l-0.38 1.104c18.939-47.792 59.143-83.567 108.615-96.021l1.091-0.233c16.010-3.173 34.416-4.988 53.247-4.988 5.746 0 11.453 0.169 17.115 0.502l-0.781-0.037h388.726q0 101.356 0 202.481z" />
<glyph unicode="&#xe90c;" glyph-name="report" data-tags="report" d="M654.3 960h-548.86v-1024h813.12v759.4zM782.3 718.76h-104.62v104.84zM185.22 15.88v864.24h412.68v-201.3c0 0 0 0 0 0 0-22.049 17.84-39.932 39.873-40h201.007v-623zM283.3 166.5h457.4v-53.26h-457.4v53.26zM283.3 666.56h271.54v-53.26h-271.54v53.26zM645.52 497.040h29.46l-113.9-114.060-89.080 89.2-196.92-197.2 37.6-37.66 159.32 159.54 89.080-89.2 151.52 151.72v-29.44h53.18v120.36h-120.26v-53.26zM283.3 782.76h271.54v-53.26h-271.54v53.26z" />
<glyph unicode="&#xe90d;" glyph-name="setting" data-tags="setting" d="M1020.8 504.92c-1.62 14.42-18.4 25.24-32.92 25.24-0.379-0.005-0.828-0.007-1.276-0.007-62.53 0-113.22 50.69-113.22 113.22 0 33.186 14.278 63.037 37.025 83.745l0.091 0.082c5.69 5.228 9.243 12.704 9.243 21.010 0 6.692-2.307 12.846-6.168 17.709l0.045-0.059c-24.209 30.639-50.836 57.545-80.16 81.249l-0.96 0.751c-4.827 3.893-11.036 6.249-17.795 6.249-8.37 0-15.896-3.613-21.104-9.365l-0.022-0.024c-30.52-33.82-85.34-46.4-127.7-28.72-41.109 17.83-69.342 58.062-69.342 104.889 0 2.262 0.066 4.51 0.196 6.739l-0.014-0.308c0.034 0.523 0.054 1.133 0.054 1.748 0 14.556-10.935 26.558-25.039 28.239l-0.135 0.013c-17.683 2.171-38.152 3.411-58.911 3.411-19.824 0-39.385-1.13-58.62-3.329l2.351 0.219c-14.341-1.636-25.377-13.702-25.377-28.346 0-0.349 0.006-0.697 0.019-1.044l-0.001 0.050c0.048-1.235 0.075-2.684 0.075-4.14 0-47.145-28.618-87.605-69.429-104.958l-0.746-0.282c-41.86-17.12-96.28-4.64-126.74 28.9-5.235 5.729-12.739 9.308-21.078 9.308-6.652 0-12.772-2.277-17.623-6.095l0.061 0.046c-30.971-24.448-58.157-51.367-82.080-81.027l-0.76-0.973c-3.941-4.854-6.327-11.108-6.327-17.919 0-8.37 3.603-15.899 9.344-21.12l0.023-0.021c22.989-20.887 37.363-50.901 37.363-84.273 0-15.781-3.214-30.811-9.024-44.471l0.281 0.744c-17.66-42-61.36-69.18-111.4-69.18-0.557 0.040-1.206 0.062-1.861 0.062-14.461 0-26.347-11.026-27.71-25.129l-0.009-0.113c-2.181-17.788-3.426-38.381-3.426-59.264 0-20.201 1.165-40.13 3.431-59.724l-0.225 2.388c1.6-14.48 18.9-25.22 33.58-25.22 44.58 1.14 87.4-26.5 105.34-70.26 5.251-12.643 8.301-27.327 8.301-42.723 0-33.213-14.191-63.112-36.84-83.964l-0.080-0.073c-5.68-5.23-9.227-12.703-9.227-21.004 0-6.685 2.3-12.833 6.152-17.696l-0.045 0.059c24.189-30.628 50.776-57.533 80.048-81.253l0.952-0.747c4.834-3.919 11.060-6.292 17.841-6.292 8.369 0 15.893 3.615 21.097 9.368l0.022 0.024c30.64 34 85.44 46.48 127.64 28.76 41.167-17.711 69.468-57.922 69.468-104.744 0-2.299-0.068-4.583-0.203-6.848l0.015 0.312c-0.034-0.517-0.053-1.122-0.053-1.73 0-14.56 10.933-26.566 25.037-28.256l0.135-0.013c17.684-2.179 38.155-3.422 58.917-3.422 19.83 0 39.394 1.134 58.633 3.341l-2.349-0.219c14.332 1.645 25.358 13.707 25.358 28.344 0 0.357-0.007 0.713-0.020 1.067l0.001-0.051c-0.048 1.235-0.075 2.685-0.075 4.142 0 47.107 28.572 87.54 69.331 104.916l0.745 0.282c42.14 17.24 96.34 4.62 126.8-28.88 5.243-5.709 12.742-9.275 21.075-9.275 6.651 0 12.771 2.272 17.627 6.082l-0.062-0.047c30.965 24.456 58.15 51.374 82.080 81.027l0.76 0.973c3.942 4.849 6.33 11.1 6.33 17.909 0 8.338-3.58 15.839-9.288 21.051l-0.022 0.020c-23.051 20.812-37.475 50.802-37.475 84.16 0 62.541 50.699 113.24 113.24 113.24 0.083 0 0.165 0 0.248 0h-0.013l6.34-0.16c0.501-0.031 1.086-0.049 1.675-0.049 14.577 0 26.6 10.937 28.311 25.052l0.014 0.137c2.188 17.806 3.436 38.418 3.436 59.321 0 20.16-1.161 40.048-3.42 59.602l0.224-2.383zM512.82 276c-0.071 0-0.156 0-0.24 0-94.452 0-171.020 76.568-171.020 171.020s76.568 171.020 171.020 171.020c94.452 0 171.020-76.568 171.020-171.020v0c-0.034-94.354-76.445-170.849-170.764-171.020h-0.016z" />
<glyph unicode="&#xe90e;" glyph-name="user" data-tags="user" d="M512 960c122.6 0 216.34-93.74 216.34-216.34s-93.74-216.34-216.34-216.34-216.34 93.76-216.34 216.34 93.74 216.34 216.34 216.34zM512-64c-180.28 0-338.92 93.74-432.68 230.76 0 144.22 288.46 223.54 432.68 223.54s432.68-79.32 432.68-223.54c-93.76-137.020-252.4-230.76-432.68-230.76z" />
<glyph unicode="&#xe90f;" glyph-name="user-group" data-tags="user-group" d="M618 731.34c47.529-30.028 80.219-79.844 86.526-137.589l0.074-0.831c18.676-8.951 40.599-14.18 63.743-14.18 83.042 0 150.36 67.318 150.36 150.36s-67.318 150.36-150.36 150.36c-82.254 0-149.081-66.047-150.342-148.001l-0.001-0.119zM519.62 423.34c0.053 0 0.117 0 0.18 0 83.053 0 150.38 67.327 150.38 150.38s-67.327 150.38-150.38 150.38c-83.053 0-150.38-67.327-150.38-150.38 0-0.007 0-0.014 0-0.021v0.001c0.011-82.94 67.21-150.18 150.132-150.26h0.008zM583.32 413.1h-127.5c-106.209-0.205-192.235-86.329-192.28-192.556v-156.004l0.4-2.44 10.74-3.36c101.18-31.66 189.1-42.22 261.46-42.22 141.32 0 223.24 40.34 228.28 42.92l10 5.080h1.080v156c0 0.024 0 0.052 0 0.080 0 106.239-86.027 192.386-192.221 192.58h-0.019zM831.78 568.34h-126.5c-1.372-50.833-22.995-96.361-57.055-129.018l-0.065-0.062c95.106-29.105 163.096-116.069 163.2-218.928v-48.012c124.86 4.58 196.8 40 201.54 42.4l10 5.1h1.1v156.080c-0.045 106.227-86.073 192.347-192.262 192.54h-0.018zM256 578.66c0.033 0 0.072 0 0.111 0 29.645 0 57.268 8.655 80.481 23.576l-0.592-0.356c7.681 48.541 33.176 90.043 69.449 118.391l0.411 0.309c0.16 2.82 0.42 5.6 0.42 8.44-0.114 82.845-67.299 149.96-150.16 149.96-82.931 0-150.16-67.229-150.16-150.16 0-82.889 67.16-150.091 150.033-150.16h0.007zM390.88 439.34c-33.943 32.571-55.51 77.813-57.073 128.095l-0.007 0.285c-4.68 0.34-9.32 0.72-14.1 0.72h-127.42c-106.202-0.205-192.223-86.317-192.28-192.535v-156.005l0.4-2.4 10.74-3.5c81.18-25.38 153.62-37.080 216.54-40.76v47.16c0.121 102.872 68.113 189.83 161.599 218.512l1.621 0.428z" />
<glyph unicode="&#xe910;" glyph-name="arrow-down" data-tags="arrow-down" d="M498.18 181.7c-0.005 0-0.011 0-0.018 0-1.612 0-3.071 0.658-4.122 1.72v0l-492.34 492.58c-1.247 1.077-2.031 2.66-2.031 4.427 0 3.225 2.615 5.84 5.84 5.84 1.801 0 3.412-0.816 4.484-2.098l0.008-0.009 488.2-488.36 515.8 516.78c1.059 1.061 2.523 1.718 4.14 1.718 3.23 0 5.848-2.618 5.848-5.848 0-1.612-0.653-3.072-1.708-4.13l-520-520.9c-1.050-1.052-2.497-1.707-4.097-1.72h-0.003z" />
<glyph unicode="&#xe911;" glyph-name="arrow-left" data-tags="arrow-left" d="M245.7 461.82c0 0.005 0 0.011 0 0.018 0 1.612 0.658 3.071 1.72 4.122v0l492.58 492.34c1.077 1.247 2.66 2.031 4.427 2.031 3.225 0 5.84-2.615 5.84-5.84 0-1.801-0.816-3.412-2.098-4.484l-0.009-0.008-488.34-488.18 516.76-515.82c1.061-1.059 1.718-2.523 1.718-4.14 0-3.23-2.618-5.848-5.848-5.848-1.612 0-3.072 0.653-4.13 1.708l-520.9 520c-1.052 1.050-1.707 2.497-1.72 4.097v0.003z" />
<glyph unicode="&#xe912;" glyph-name="arrow-right" data-tags="arrow-right" d="M778.3 434.18c0-0.005 0-0.011 0-0.018 0-1.612-0.658-3.071-1.72-4.122v0l-492.58-492.34c-1.058-1.055-2.518-1.708-4.13-1.708-3.23 0-5.848 2.618-5.848 5.848 0 1.617 0.657 3.081 1.718 4.14v0l488.36 488.2-516.68 515.82c-1.065 1.061-1.725 2.528-1.725 4.15 0 3.234 2.621 5.855 5.855 5.855 1.612 0 3.071-0.651 4.13-1.705v0l520.9-520c1.056-1.055 1.712-2.51 1.72-4.119v-0.001z" />
<glyph unicode="&#xe913;" glyph-name="a-z-icon" data-tags="a-z-icon" d="M295.44 866.58h38.56v-751.94h-38.56v751.94zM295.44 92.96h38.56v-69.48h-38.56v69.48zM457.72 713.58l-144.28 153.1-143.44-134.66-26.36 28.1 171.46 161.020 170.7-181.14-28.080-26.42zM878.68 548.72h-36c-0.201-0.009-0.437-0.015-0.674-0.015-3.521 0-6.766 1.178-9.363 3.162l0.037-0.027c-2.536 2.094-4.504 4.789-5.696 7.87l-0.044 0.13-32.1 82.9h-154l-32.1-82.9c-1.27-3.085-3.231-5.664-5.702-7.631l-0.038-0.029c-2.596-2.097-5.937-3.366-9.574-3.366-0.15 0-0.299 0.002-0.447 0.006h-35.978l137.18 343.18h47.2zM653.68 676.2h128.18l-53.86 139.68c-3.562 8.689-7.089 19.47-9.91 30.534l-0.39 1.806q-2.64-9.82-5.16-18t-4.92-14.5zM822.88 366.82v-17.26c-0.029-5.771-1.916-11.095-5.091-15.413l0.051 0.073-194.3-272.9h196v-37.86h-256.86v18.22c0.046 5.147 1.75 9.888 4.604 13.722l-0.044-0.062 194.56 273.64h-190v37.84z" />
<glyph unicode="&#xe914;" glyph-name="cup-icon" data-tags="cup-icon" d="M820.78 811.84c0.66 31.3-0.5 51.12-0.5 51.12h-616.58s-1.12-19.82-0.5-51.12h-203.2v-33.54c0-7.6 1.28-187.6 112.7-286.18 46.4-41.14 104.26-61.78 172.66-61.78 10.34 0 20.98 0.62 31.66 1.44 38.82-52.9 83.6-90.2 134-108.56v-146.98h-148v-92h-48.86v-51.46h515.72v51.54h-49v92h-148v146.9c50.28 18.38 95.24 55.66 134 108.56 10.84-0.82 21.36-1.44 31.7-1.44 68.38 0 126.24 20.64 172.66 61.78 111.48 98.58 112.76 278.58 112.76 286.18v33.54zM157.32 542c-63.52 56.12-82.44 152.26-88 202.92h137.74c5.84-63.060 19.42-141.82 51.080-210.86 5.84-12.72 12-24.82 18.12-36.58-47.38 2-87.32 16.6-118.98 44.52zM866.7 542c-31.66-28-71.6-42.58-118.98-44.52 6.34 11.76 12.3 23.86 18.12 36.58 31.7 69.040 45.44 147.8 51.080 210.86h137.74c-5.46-50.68-24.38-146.8-88-202.92z" />
<glyph unicode="&#xe915;" glyph-name="download-icon" data-tags="download-icon" d="M869.26 307.3v-233.84h-714.64v233.84h-137.28v-302.6c0-0.024 0-0.052 0-0.080 0-37.898 30.722-68.62 68.62-68.62 0.056 0 0.112 0 0.169 0h851.751c0.024 0 0.052 0 0.080 0 37.942 0 68.7 30.758 68.7 68.7 0 0 0 0 0 0v0 302.6zM499.44 330.48l-196.6 238s-30 28.22 2.52 28.22h110.8v346.48s-4.52 16.82 20.98 16.82h156c18.34 0 18-14.18 18-14.18v-341.82h102.26c39.32 0 9.68-29.56 9.68-29.56s-167.26-222.52-190.76-245.88c-16.8-16.82-32.8 2-32.8 2z" />
<glyph unicode="&#xe916;" glyph-name="flag-icon" data-tags="flag-icon" d="M932.82 608.26l-810.020 300.58v34c0 9.941-8.059 18-18 18s-18-8.059-18-18v0-989.76c0-9.941 8.059-18 18-18s18 8.059 18 18v0 375.42l810 279.78z" />
<glyph unicode="&#xe917;" glyph-name="group-icon" data-tags="group-icon" d="M928.72 592.3c-32.033 0-58-25.967-58-58s25.967-58 58-58c32.033 0 58 25.967 58 58v0c0 0.030 0 0.065 0 0.1 0 31.977-25.923 57.9-57.9 57.9-0.035 0-0.070 0-0.106 0h0.006zM95.26 592.3c-32.033 0-58-25.967-58-58s25.967-58 58-58c32.033 0 58 25.967 58 58v0c0 0.036 0 0.078 0 0.12 0 31.966-25.914 57.88-57.88 57.88-0.042 0-0.084 0-0.127 0h0.007zM756.32 697.76c-47.656-0.023-86.28-38.661-86.28-86.32 0-47.673 38.647-86.32 86.32-86.32 47.659 0 86.297 38.624 86.32 86.278v0.002c-0.034 47.682-38.679 86.326-86.357 86.36h-0.003zM1024 173h-98.36v181c-0.151 31.446-8.966 60.801-24.178 85.841l0.418-0.741c7.994 2.534 17.203 4.078 26.746 4.259l0.094 0.001c52.59-0.148 95.178-42.763 95.28-95.35v-0.010zM267.66 697.74c-47.665-0.011-86.3-38.654-86.3-86.32 0-47.673 38.647-86.32 86.32-86.32 47.666 0 86.309 38.635 86.32 86.299v0.001c-0.125 47.617-38.669 86.19-86.264 86.36h-0.016zM95.28 443.34c9.631-0.159 18.842-1.705 27.523-4.446l-0.683 0.186c-14.832-24.281-23.659-53.637-23.78-85.046v-181.034h-98.34v175c0.147 52.562 42.718 95.133 95.266 95.28h0.014zM511.8 870.14c-70.499-0.023-127.64-57.178-127.64-127.68 0-70.516 57.164-127.68 127.68-127.68 70.502 0 127.657 57.142 127.68 127.638v0.002c0 0.006 0 0.013 0 0.020 0 70.527-57.173 127.7-127.7 127.7-0.007 0-0.014 0-0.021 0h0.001zM894.14 105.74h-150.44v275.32c0 37.66-10.18 73.1-26.2 104.58 12.118 3.916 26.061 6.173 40.53 6.173 75.188 0 136.14-60.952 136.14-136.14 0-0.588-0.004-1.176-0.011-1.762l0.001 0.089zM280.28 381.060v-275.32h-150.44v248.26c0.114 76.129 61.855 137.8 138 137.8 0.056 0 0.113 0 0.169 0h-0.009c13.816-0.195 27.039-2.433 39.476-6.425l-0.956 0.265c-16-31.5-26.2-66.94-26.2-104.58zM312 25.86h400v355.2c0 110.12-89.74 199.86-200.18 199.86-110.331-0.103-199.74-89.527-199.82-199.853v-0.007z" />
<glyph unicode="&#xe918;" glyph-name="heart-icon" data-tags="heart-icon" d="M512-34.72l-93.78 93.48c-242.060 214.38-418.22 370.36-418.22 572.64 0 167.86 131.32 299.32 299.040 299.32 77.88 0 154.84-30.3 213-82.52 58 52.22 134.98 82.52 212.94 82.52 167.7 0 299.020-131.46 299.020-299.32 0-202.28-176.16-358.26-420-574.16z" />
<glyph unicode="&#xe919;" glyph-name="heart-icon-outline" data-tags="heart-icon-outline" d="M512-34.72l-93.78 93.48c-242.060 214.38-418.22 370.36-418.22 572.64 0 167.86 131.32 299.32 299.040 299.32 77.88 0 154.84-30.3 213-82.52 58 52.22 134.98 82.52 212.94 82.52 167.7 0 299.020-131.46 299.020-299.32 0-202.28-176.16-358.26-420-574.16zM299.040 852.78c-123.94 0-221.040-97.22-221.040-221.38 0-159.42 142.2-293.16 393.58-515.84l40.42-40.2 38.72 38.64c253.12 224.22 395.28 358 395.28 517.4 0 124.16-97.14 221.38-221.080 221.38-68.44 0-138.56-32.82-183.16-85.56l-29.76-35.22-29.72 35.12c-44.62 52.88-114.88 85.66-183.24 85.66z" />
<glyph unicode="&#xe91a;" glyph-name="icon" data-tags="icon" d="M0 946.6h418.1v-418.1h-418.1v418.1zM605.9 946.6h418.1v-418.1h-418.1v418.1zM0 367.52h418.1v-418.1h-418.1v418.1zM605.9 367.52h418.1v-418.1h-418.1v418.1z" />
<glyph unicode="&#xe91b;" glyph-name="list" data-tags="list" d="M0 558.78h178.52v-178.52h-178.52v178.52zM0 824.96h178.52v-178.52h-178.52v178.52zM241 824.96h783v-178.52h-783v178.52zM241 558.78h783v-178.52h-783v178.52zM0 249.56h178.52v-178.52h-178.52v178.52zM241 249.56h783v-178.52h-783v178.52z" />
<glyph unicode="&#xe91c;" glyph-name="noti-icon" data-tags="noti-icon" d="M423.8 28.68c0 53.82 37.38 92.68 88.2 92.68 53.82 0 88.2-38.88 88.2-92.68 0-52.32-34.38-92.68-88.2-92.68-52.32 0-88.2 40.36-88.2 92.68zM461.18 242.46l-20.94 717.54h143.5l-20.92-717.54z" />
<glyph unicode="&#xe91d;" glyph-name="play-icon" data-tags="play-icon" d="M185.5 977.54l0.4-1059.080 652.6 535.56-653 523.52z" />
<glyph unicode="&#xe91e;" glyph-name="save-icon" data-tags="save-icon" d="M574.68 855.5h125.14v-208.98h-125.14v208.98zM833.72 960h-822.58v-1024h1001.72v844.62zM219.84 918.16h542.66v-334.28h-542.66zM825.060-22.28h-647.060v438.9h647.060zM282.4 291.2h146.14c11.554 0 20.92 9.366 20.92 20.92s-9.366 20.92-20.92 20.92v0h-146.14c-11.554 0-20.92-9.366-20.92-20.92s9.366-20.92 20.92-20.92v0zM282.4 207.62h208.7c11.554 0 20.92 9.366 20.92 20.92s-9.366 20.92-20.92 20.92v0h-208.7c-11.554 0-20.92-9.366-20.92-20.92s9.366-20.92 20.92-20.92v0zM553.8 207.62c5.757 0.070 10.956 2.401 14.763 6.143l-0.003-0.003c3.789 3.783 6.133 9.013 6.133 14.79s-2.344 11.007-6.133 14.79v0c-3.842 3.608-9.027 5.824-14.73 5.824s-10.888-2.216-14.741-5.834l0.011 0.011c-3.817-3.769-6.185-8.996-6.2-14.777v-0.003c-0.001-0.060-0.001-0.13-0.001-0.201 0-11.443 9.277-20.72 20.72-20.72 0.064 0 0.127 0 0.191 0.001h-0.010z" />
<glyph unicode="&#xe91f;" glyph-name="share-icon" data-tags="share-icon" d="M815.34 283.12c-0.13 0-0.283 0.001-0.437 0.001-47.736 0-90.93-19.447-122.093-50.85l-0.011-0.011c-8.731-8.782-16.546-18.492-23.28-28.963l-0.42-0.697-299.52 182c7.842 18.94 12.409 40.932 12.44 63.988v0.012c-0.027 23.113-4.557 45.161-12.759 65.324l0.419-1.164 299.52 180.68c31.639-49.472 86.29-81.798 148.491-81.798 97.025 0 175.68 78.655 175.68 175.68s-78.655 175.68-175.68 175.68c-97.025 0-175.68-78.655-175.68-175.68 0-22.58 4.26-44.166 12.020-63.996l-0.412 1.195-300-180.92c-31.47 47.618-84.767 78.6-145.3 78.6-95.877 0-173.6-77.723-173.6-173.6s77.723-173.6 173.6-173.6c60.533 0 113.829 30.982 144.897 77.953l0.402 0.647 300-182.3c-7.255-18.395-11.473-39.701-11.5-61.989v-0.011c0.171-95.56 77.676-172.96 173.26-172.96 95.689 0 173.26 77.571 173.26 173.26 0 95.661-77.525 173.214-173.175 173.26h-0.005z" />
<glyph unicode="&#xe920;" glyph-name="accnouce" data-tags="accnouce" d="M677.26 848.84c-7.58 0-15.020-4.8-22-14.24-0.78-1.020-79.26-102.72-275.4-163.2-14.34-4.42-31.24-10-50.34-12.42-10.56-1.28-13.060 0.94-13.88 2.44-5.96 10.779-17.247 17.965-30.215 18h-193.845c-19.067-0.023-34.517-15.473-34.54-34.538v-12.882c0-7.76-5.48-8.12-7.38-8.26l-4.38-0.34c-25.211-2.199-44.895-23.021-45.28-48.522v-129.518c0.389-25.475 19.987-46.253 44.929-48.506l0.191-0.014 6.46-0.5c1.56-0.12 5.48-1.52 5.48-8.42v-12.56c0.023-19.067 15.473-34.517 34.538-34.54h15.002c6.62 0 8-6.7 8-6.7l53.4-244.12c5.26-24 28.64-42.78 53.18-42.78h61.88c0.439-0.018 0.954-0.028 1.471-0.028 21.053 0 38.12 17.067 38.12 38.12 0 3.415-0.449 6.725-1.291 9.875l0.061-0.266-52.36 238.6s-2 7.38 5.5 7.38h10.66c12.96 0 23.28 7.76 30.12 17.76 2.96 4.3 9.060 3.66 12.38 2.98 19.48-4 37.18-8.2 52-12.78 196.14-60.6 274.62-162.2 275.38-163.2 7.080-9.44 14.52-14.24 22.12-14.24 7.136 0.080 13.246 4.385 15.956 10.527l0.044 0.113c2.102 4.704 3.326 10.194 3.326 15.97 0 0.51-0.010 1.018-0.028 1.523l0.002-0.073v621.3c0 26.7-16 28-19.32 28zM726.56 498.28l-0.56 97.46h0.58c53.826 0 97.46-43.634 97.46-97.46s-43.634-97.46-97.46-97.46v0zM724.64 314.86c-2.347 0-4.25 1.903-4.25 4.25s1.903 4.25 4.25 4.25v0c0.556-0.006 1.213-0.010 1.87-0.010 96.606 0 174.92 78.314 174.92 174.92s-78.314 174.92-174.92 174.92c-0.658 0-1.314-0.004-1.97-0.011l0.1 0.001c-2.347 0-4.25 1.903-4.25 4.25s1.903 4.25 4.25 4.25v0c101.295 0 183.41-82.115 183.41-183.41s-82.115-183.41-183.41-183.41v0zM754.18 228.44c-2.347 0-4.25 1.903-4.25 4.25s1.903 4.25 4.25 4.25v0c144.329 0 261.33 117.001 261.33 261.33s-117.001 261.33-261.33 261.33v0c-2.347 0-4.25 1.903-4.25 4.25s1.903 4.25 4.25 4.25v0c148.78-0.1 269.82-121.060 269.82-269.84s-121.040-269.82-269.82-269.82z" />
<glyph unicode="&#xe921;" glyph-name="challenges" data-tags="challenges" d="M930.24 960c-9.64 0-19.1-6.14-28-18.2-0.98-1.3-100.78-131.22-350.16-208.48-18.24-5.64-39.72-12.9-64-15.86-13.42-1.64-16.6 1.2-17.66 3.12-7.56 13.73-21.914 22.89-38.413 22.94h-246.387c0 0 0 0 0 0-24.301 0-44-19.699-44-44 0-0.042 0-0.084 0-0.127v0.007-16.42c0-10-6.96-10.38-9.38-10.56l-5.56-0.44c-32.108-2.881-57.142-29.449-57.58-61.956v-165.444c0-31.86 25.72-59.66 57.38-62l8.2-0.64c2-0.16 6.96-2 6.96-10.76v-16c0-0.036 0-0.078 0-0.12 0-24.301 19.699-44 44-44 0 0 0 0 0 0h19.060c8.42 0 10-8.54 10-8.54l68.14-312c6.74-30.52 36.46-54.52 67.68-54.52h78.66c0.301-0.007 0.656-0.010 1.012-0.010 15.5 0 29.358 7.027 38.563 18.070l0.065 0.081c6.578 8.465 10.546 19.242 10.546 30.947 0 4.207-0.512 8.293-1.478 12.201l0.073-0.348-66.58 304.76s-2.52 9.42 7 9.42h13.62c16.46 0 29.58 10 38.3 22.68 3.76 5.48 11.52 4.66 15.74 3.8 24.76-5.040 47.28-10.48 66-16.32 249.38-77.4 349.16-207.18 350.12-208.48 9-12 18.46-18.2 28.12-18.2 8.74 0 16.16 4.96 20.38 13.6 2.664 5.998 4.215 12.995 4.215 20.355 0 0.663-0.013 1.323-0.038 1.98l0.003-0.095v793.72c-0.020 34.12-20.48 35.84-24.6 35.84z" />
<glyph unicode="&#xe922;" glyph-name="check-icon" data-tags="check-icon" d="M11.72 408.58c-6.891 7.243-11.273 16.93-11.717 27.634l-0.003 0.086c0.452 10.712 4.835 20.321 11.733 27.494l-0.013-0.014 55.18 55.2c6.941 7.323 16.739 11.88 27.6 11.88s20.659-4.557 27.584-11.863l0.016-0.017 3.88-4 216.74-232.32c3.455-3.663 8.341-5.943 13.76-5.943s10.305 2.281 13.751 5.934l0.009 0.009 527.76 547.52h4c6.997 7.199 16.772 11.665 27.59 11.665s20.593-4.467 27.581-11.656l0.009-0.009 55.040-55.2c7.287-6.959 11.817-16.75 11.817-27.6s-4.53-20.641-11.802-27.586l-0.015-0.014-630-654c-7.88-7.88-15.8-11.72-27.72-11.72s-19.6 3.84-27.48 11.72l-307.42 331.1z" />
<glyph unicode="&#xe923;" glyph-name="dashboard" data-tags="dashboard" d="M512 692.12l-365.24-302.52c-0.008-0.716-0.117-1.403-0.314-2.052l0.014 0.052c-0.157-0.588-0.265-1.273-0.299-1.977l-0.001-0.023v-306.12c0.286-22.362 18.276-40.429 40.581-40.839l0.039-0.001h244v245.060h162.62v-245.060h243.8c22.361 0.389 40.373 18.464 40.66 40.813v306.327c0.008 0.14 0.012 0.303 0.012 0.468 0 1.208-0.24 2.36-0.674 3.412l0.022-0.059zM1016.92 458.52l-139.080 116.14v260.38c0.012 0.255 0.019 0.554 0.019 0.855 0 10.814-8.766 19.58-19.58 19.58-0.267 0-0.532-0.005-0.797-0.016l0.038 0.001h-122c-0.207 0.008-0.451 0.012-0.695 0.012-5.432 0-10.352-2.189-13.926-5.734l0.001 0.001c-3.544-3.606-5.731-8.555-5.731-14.014 0-0.234 0.004-0.467 0.012-0.7l-0.001 0.034v-124.44l-154.9 130.14c-13.169 10.354-29.99 16.606-48.27 16.606s-35.1-6.252-48.439-16.734l0.169 0.128-456.7-382.24c-4.099-3.25-6.777-8.138-7.038-13.658l-0.002-0.042c-0.061-0.598-0.095-1.292-0.095-1.995 0-4.944 1.717-9.488 4.587-13.067l-0.032 0.041 39.36-47.2c3.363-3.759 7.991-6.325 13.209-7.028l0.111-0.012c0.453-0.031 0.981-0.049 1.513-0.049 5.196 0 9.999 1.684 13.893 4.535l-0.066-0.046 439.52 368.24 439.52-368.24c3.34-2.8 7.684-4.501 12.425-4.501 0.315 0 0.628 0.008 0.939 0.022l-0.044-0.002h2c5.327 0.722 9.953 3.287 13.302 7.020l0.018 0.020 39.4 47.22c2.818 3.509 4.523 8.016 4.523 12.921 0 0.725-0.037 1.441-0.11 2.147l0.007-0.088c-0.255 5.556-2.918 10.442-6.963 13.671l-0.037 0.029z" />
<glyph unicode="&#xe924;" d="M82.12 536h2.82c5.886-0.476 10.982-3.496 14.242-7.945l0.038-0.055c2.299-3.136 3.679-7.071 3.679-11.328 0-9.517-6.896-17.424-15.964-18.996l-0.115-0.017c0-10.86 0-21.72 0-32.58 4.79-0.589 9.069-2.407 12.622-5.126l-0.062 0.046 41.22 41.12c-1.463 2.661-2.324 5.831-2.324 9.202 0 10.703 8.677 19.38 19.38 19.38s19.38-8.677 19.38-19.38c0-10.703-8.677-19.38-19.38-19.38-5.037 0-9.625 1.921-13.071 5.071l0.015-0.013q-20.32-20.28-40.6-40.58c3.356-4.291 5.382-9.764 5.382-15.71s-2.026-11.419-5.424-15.766l0.043 0.056q12.3-12.28 24.6-24.56c1.886 1.096 4.15 1.743 6.566 1.743 1.65 0 3.229-0.302 4.685-0.853l-0.091 0.030c4.861-1.902 8.241-6.551 8.241-11.988 0-7.091-5.749-12.84-12.84-12.84-5.731 0-10.584 3.754-12.236 8.937l-0.025 0.091c-0.393 1.163-0.62 2.503-0.62 3.896 0 2.338 0.639 4.527 1.752 6.402l-0.032-0.058q-12.32 12.28-24.64 24.56c-4.305-3.356-9.791-5.381-15.75-5.381s-11.445 2.025-15.808 5.424l0.058-0.043q-15.86-15.72-31.56-31.5c1.458-2.657 2.316-5.822 2.316-9.187 0-2.889-0.632-5.63-1.766-8.093l0.050 0.12c-2.934-6.237-8.886-10.623-15.921-11.294l-0.079-0.006h-2.9c-9.645 0.703-17.297 8.355-17.996 17.937l-0.004 0.063v2.2c0.567 10.213 8.987 18.281 19.292 18.281 4.989 0 9.536-1.891 12.964-4.995l-0.016 0.015q15.52 15.56 31.040 31.1c-3.366 4.295-5.397 9.775-5.397 15.73s2.032 11.435 5.44 15.786l-0.042-0.056q-12.3 12.24-24.62 24.54c-1.864-1.112-4.11-1.77-6.51-1.77-7.102 0-12.86 5.758-12.86 12.86s5.758 12.86 12.86 12.86c7.102 0 12.86-5.758 12.86-12.86 0-2.4-0.658-4.647-1.802-6.569l0.033 0.059q12.32-12.3 24.62-24.58c3.48 2.686 7.739 4.533 12.384 5.165l0.136 0.015q0 16.28 0 32.56c-7.083 1.287-12.758 6.25-15.039 12.803l-0.041 0.137c-0.623 1.813-0.983 3.903-0.983 6.077 0 4.728 1.702 9.059 4.527 12.413l-0.024-0.029c3.273 3.833 7.95 6.385 13.225 6.855l0.075 0.005z" />
<glyph unicode="&#xe925;" d="M254 403.32c0 9.38-0.12 18.76 0 28.12 18.86-0.1 37.74 0 56.62 0q0 17.2 0 34.42c-18.9 0-37.8 0-56.7 0 0 8.76 0 17.52 0 26.28 20.76 0 41.54 0 62.3 0q0 17.46 0 34.9h-93.48c-0.097 0.007-0.209 0.011-0.323 0.011-1.754 0-3.285-0.952-4.105-2.368l-0.012-0.023c-0.411-0.967-0.65-2.091-0.65-3.271 0-0.384 0.025-0.762 0.074-1.133l-0.005 0.043q0-62.12 0-124.24c-0.001-0.105-0.002-0.229-0.002-0.353 0-12.61 8.587-23.214 20.233-26.284l0.189-0.042c2.857-0.604 6.139-0.95 9.502-0.95 1.033 0 2.059 0.033 3.077 0.097l-0.139-0.007h66.94q0 17.46 0 34.9c-21.16-0.1-42.3-0.040-63.52-0.1z" />
<glyph unicode="&#xe926;" d="M458.12 526.98h-18c-0.681 0.061-1.472 0.096-2.272 0.096-2.478 0-4.878-0.334-7.157-0.96l0.189 0.044c-4.626-1.665-8.037-5.642-8.869-10.5l-0.011-0.080c-0.15-1.6-0.236-3.46-0.236-5.339 0-0.732 0.013-1.46 0.039-2.186l-0.003 0.105c0-22.34 0-44.7 0-67.040-3.6 4.8-6.98 9.78-10.5 14.64q-25.3 35.6-50.7 71.2h-13.6c-0.013 0-0.027 0-0.042 0-7.5 0-13.58-6.080-13.58-13.58 0-0.084 0.001-0.169 0.002-0.253v0.013-117.6c0.033-14.454 11.351-26.254 25.609-27.057l0.071-0.003c3.52-0.14 7.060 0 10.58 0 0.16 28.64 0 57.28 0 86 20.48-28.56 40.76-57.26 61.18-85.86 9.060 0 18.14 0 27.2 0 0.12 3.1 0 6.2 0 9.28q0.1 74.44 0.1 149.080z" />
<glyph unicode="&#xe927;" d="M483.28 526.96c-0.059 0.001-0.128 0.001-0.198 0.001-2.824 0-5.449-0.852-7.632-2.313l0.050 0.031c-3.496-2.371-5.812-6.256-5.999-10.692l-0.001-0.028c-0.086-0.796-0.136-1.719-0.136-2.654 0-2.943 0.489-5.772 1.39-8.41l-0.054 0.183c2.605-6.39 8.703-10.844 15.861-11h0.019c8 0 15.8 0 23.7 0q0-48.26 0-96.52c0.045-13.72 10.248-25.043 23.479-26.844l0.141-0.016c4.2-0.44 8.46-0.16 12.68-0.24 0 41.22 0 82.42 0 123.64 13.6 0 27.18 0 40.78 0 0 11.64 0 23.28 0 34.9z" />
<glyph unicode="&#xe928;" d="M716.26 466.16c0.259 1.988 0.406 4.287 0.406 6.621 0 29.819-24.090 54.012-53.87 54.179h-0.016c-16.76 0-33.52 0-50.28 0-0.054 0.001-0.118 0.001-0.182 0.001-7.5 0-13.58-6.080-13.58-13.58 0-0.085 0.001-0.169 0.002-0.254v0.013q0-54 0-108c0-4.16-0.18-8.34 0.16-12.5 1.254-10.561 8.386-19.185 17.989-22.581l0.191-0.059c5.76-2.1 12-1.32 18-1.48q0 26 0 52c5.76 0 11.5 0 17.24 0q14.92-26 30-52h39.040q-16.92 29.080-33.8 58.2c15.173 7.694 25.998 22.066 28.662 39.142l0.038 0.298zM680 468.6c-1.054-7.076-5.771-12.844-12.128-15.374l-0.132-0.046c-2.276-0.662-4.891-1.043-7.595-1.043-0.847 0-1.684 0.037-2.512 0.11l0.107-0.008h-22.7c0 13.56 0 27.12 0 40.68 8.98 0.1 18 0 26.94 0 0.061 0.001 0.132 0.001 0.204 0.001 4.186 0 8.018-1.513 10.981-4.022l-0.025 0.020c4.459-4.002 7.25-9.783 7.25-16.216 0-1.452-0.142-2.87-0.413-4.242l0.023 0.138z" />
<glyph unicode="&#xe929;" d="M744.58 526.68c-6.274-1.329-10.913-6.822-10.913-13.397 0-0.212 0.005-0.423 0.014-0.632l-0.001 0.030q0-55.68 0-111.36c-0.061-0.906-0.096-1.964-0.096-3.029 0-3.373 0.348-6.665 1.010-9.842l-0.054 0.312c2.416-9.063 9.15-16.154 17.807-19.025l0.193-0.055c5.62-2 11.62-1.16 17.44-1.3q0 79.26 0 158.52h-19.98c-0.469 0.028-1.017 0.044-1.568 0.044-1.358 0-2.695-0.096-4.002-0.281l0.15 0.017z" />
<glyph unicode="&#xe92a;" d="M891.14 450.6c3.748 3.319 6.869 7.243 9.23 11.636l0.11 0.224c2.834 5.636 4.494 12.282 4.494 19.317 0 2.744-0.253 5.429-0.736 8.033l0.042-0.27c-1.435 8.478-5.217 15.896-10.646 21.768l0.026-0.028c-9.66 10.44-24 15.56-38 15.66-16.34 0-32.68 0-49.020 0-0.081 0.002-0.177 0.003-0.272 0.003-4.364 0-8.253-2.038-10.766-5.214l-0.022-0.029c-1.802-2.332-2.888-5.297-2.888-8.516 0-0.163 0.003-0.326 0.008-0.488l-0.001 0.024q0-58.4 0-116.78c-0.001-0.096-0.002-0.209-0.002-0.323 0-14.889 11.963-26.984 26.802-27.197h0.020c13.020 0 26 0 39.040 0 0.197-0.002 0.431-0.003 0.664-0.003 4.788 0 9.454 0.526 13.941 1.523l-0.426-0.079c11.983 2.486 22.134 9.042 29.176 18.127l0.084 0.113c5.022 6.791 8.154 15.25 8.478 24.424l0.002 0.076c0.046 0.75 0.073 1.627 0.073 2.51 0 7.052-1.682 13.711-4.666 19.598l0.114-0.247c-3.491 6.698-8.542 12.159-14.69 16.040l-0.17 0.1zM828.96 492.96h20.78c3.6 0 7.38 0.38 10.8-1.080 3.69-1.547 6.447-4.685 7.441-8.532l0.019-0.088c0.401-1.276 0.632-2.744 0.632-4.265 0-4.674-2.181-8.839-5.582-11.531l-0.031-0.023c-2.542-1.645-5.65-2.623-8.985-2.623-0.653 0-1.298 0.038-1.932 0.111l0.077-0.007h-23.22q0 14.020 0 28.040zM873.54 412.5c-1.232-4.242-4.352-7.572-8.366-9.069l-0.094-0.031c-2.369-0.686-5.091-1.081-7.904-1.081-0.857 0-1.706 0.037-2.545 0.108l0.109-0.008h-25.78q0 15.16 0 30.3h29.54c0.298 0.020 0.646 0.032 0.997 0.032 3.744 0 7.181-1.317 9.871-3.514l-0.028 0.022c3.090-2.968 5.010-7.134 5.010-11.749 0-1.791-0.289-3.514-0.823-5.126l0.033 0.115z" />
<glyph unicode="&#xe92b;" d="M1024 403.34h-63.5q0 14 0 28h56.7q0 17.22 0 34.44h-56.7q0 13.1 0 26.22h62.36c0 11.64 0 23.28 0 34.92q-40.82 0-81.64 0c-0.535 0.044-1.157 0.069-1.786 0.069-2.125 0-4.182-0.288-6.136-0.827l0.162 0.038c-4.632-1.596-8.080-5.496-9.006-10.295l-0.014-0.085c-0.181-1.743-0.285-3.766-0.285-5.813 0-0.811 0.016-1.619 0.048-2.422l-0.004 0.115v-111.32c-0.004-0.173-0.006-0.377-0.006-0.581 0-3.595 0.677-7.031 1.912-10.189l-0.066 0.19c3.266-8.242 10.2-14.412 18.732-16.56l0.188-0.040c2.761-0.547 5.935-0.86 9.183-0.86 0.991 0 1.975 0.029 2.952 0.087l-0.135-0.006h67.040q0 17.48 0 34.92z" />
<glyph unicode="&#xe92c;" glyph-name="note-icon" data-tags="note-icon" d="M435.32 840.5h153.38c9.42 0.023 17.049 7.659 17.060 17.079v85.341c0 9.433-7.647 17.080-17.080 17.080h-153.36c-9.42-0.023-17.049-7.659-17.060-17.079v-85.341c0.023-9.417 7.645-17.046 17.057-17.080h0.003zM656.84 925.82c-8.895-0.629-15.873-8-15.873-17s6.978-16.371 15.819-16.997l0.054-0.003h238.7v-921.64h-766.98v921.58h238.6c0.349-0.025 0.756-0.040 1.167-0.040 9.411 0 17.040 7.629 17.040 17.040s-7.629 17.040-17.040 17.040c-0.411 0-0.818-0.015-1.221-0.043l0.054 0.003h-272.72v-989.76h835.12v989.82zM145.52 874.66v-887.5h732.96v887.5h-187.5v-51.16h-358v51.16zM486.4 224.54h-221.52c-9.4 0-17.060 5.74-17.060 12.86s7.66 12.94 17.060 12.94h221.52c9.5 0 17.060-5.74 17.060-12.94s-7.56-12.86-17.060-12.86zM759.12 302h-494.24c-9.4 0-17.060 5.82-17.060 12.94s7.66 12.94 17.060 12.94h494.24c9.42 0 17.060-5.8 17.060-12.94s-7.64-12.94-17.060-12.94zM759.12 392.54h-494.24c-9.4 0-17.060 5.8-17.060 12.94s7.66 12.94 17.060 12.94h494.24c9.42 0 17.060-5.82 17.060-12.94s-7.64-12.94-17.060-12.94zM247.8 483.14c0 7.12 7.66 12.86 17.060 12.86h238.6c9.42 0 17.060-5.74 17.060-12.86s-7.64-12.94-17.060-12.94h-238.58c-9.4 0-17.060 5.74-17.060 12.94zM554.66 483.14c0.074 3.78 1.98 7.099 4.863 9.116l0.037 0.024c6.5 4.94 17.72 4.8 24.22 0 2.92-2.041 4.826-5.36 4.9-9.129v-0.011c-0.15-3.784-2.030-7.101-4.867-9.197l-0.033-0.023c-3.325-2.329-7.455-3.721-11.91-3.721-0.088 0-0.175 0.001-0.263 0.002h0.013c-0.124-0.003-0.269-0.004-0.415-0.004-4.348 0-8.37 1.396-11.643 3.764l0.058-0.040c-2.857 2.13-4.732 5.44-4.899 9.194l-0.001 0.026zM759.12 470.2h-119.24c-9.5 0-17.060 5.74-17.060 12.94s7.56 12.86 17.060 12.86h119.24c9.42 0 17.060-5.74 17.060-12.86s-7.64-12.94-17.060-12.94zM759.12 573.6c9.42 0 17.060-5.74 17.060-12.94s-7.64-12.86-17.060-12.86h-494.24c-9.4 0-17.060 5.74-17.060 12.86s7.66 12.94 17.060 12.94zM486.4 651.2c9.5 0 17.060-5.8 17.060-12.94s-7.56-12.94-17.060-12.94h-221.52c-9.4 0-17.060 5.82-17.060 12.94s7.66 12.94 17.060 12.94z" />
<glyph unicode="&#xe92d;" glyph-name="rewards" data-tags="rewards" d="M1006.76 744.88c-10.365 10.575-24.798 17.13-40.761 17.13-0.379 0-0.758-0.004-1.136-0.011l0.056 0.001h-177.24v58.92c0.006 0.395 0.009 0.86 0.009 1.327 0 26.688-11.084 50.787-28.9 67.945l-0.030 0.028c-17.281 17.791-41.43 28.83-68.157 28.83-0.486 0-0.972-0.004-1.456-0.011l0.073 0.001h-354.44c-0.411 0.006-0.897 0.010-1.383 0.010-26.727 0-50.876-11.039-68.135-28.807l-0.022-0.023c-17.845-17.189-28.929-41.291-28.929-67.981 0-0.464 0.003-0.927 0.010-1.389l-0.001 0.070v-58.92h-177.24c-0.304 0.006-0.662 0.009-1.021 0.009-15.992 0-30.448-6.579-40.808-17.178l-0.011-0.011c-10.642-10.316-17.248-24.744-17.248-40.715 0-0.332 0.003-0.664 0.009-0.995l-0.001 0.050v-78.5q0-43.54 25.54-87.72c18.533-31.174 41.486-57.574 68.367-79.307l0.553-0.433q43.38-35.58 106.46-59.8c39.149-15.449 84.446-25.29 131.775-27.272l0.845-0.028c17.186-21.98 36.402-41.133 57.721-57.708l0.739-0.552q23.4-20.86 32.3-44.48t8.92-54.9q0-33.12-18.76-55.8t-60-22.7c-0.408 0.005-0.89 0.007-1.373 0.007-30.628 0-58.792-10.55-81.057-28.214l0.27 0.207q-36-28-36-70.24v-39.24c-0.009-0.214-0.014-0.464-0.014-0.716 0-10.449 8.471-18.92 18.92-18.92 0.272 0 0.543 0.006 0.812 0.017l-0.038-0.001h512.020c0.243-0.011 0.528-0.018 0.815-0.018 10.427 0 18.88 8.453 18.88 18.88 0 0.266-0.006 0.532-0.016 0.795l0.001-0.038v39.34q0 42.32-36 70.24c-21.995 17.457-50.159 28.007-80.787 28.007-0.483 0-0.965-0.003-1.446-0.008l0.073 0.001q-41.22 0-60 22.7t-18.74 55.8q0 31.3 8.92 54.9t32.3 44.38c22.050 17.128 41.26 36.28 57.898 57.541l0.542 0.719c48.181 2.010 93.485 11.851 135.487 28.281l-2.847-0.981q63.060 24.24 106.46 59.8c27.432 22.168 50.385 48.568 68.179 78.4l0.741 1.34q25.54 44.16 25.54 87.7v78.52c0.005 0.286 0.008 0.624 0.008 0.962 0 15.984-6.605 30.426-17.234 40.744l-0.014 0.013zM136.92 525.28q-58.16 51.52-58.14 99.38v58.88h157.54q0-128.2 45.54-227.56-86.78 17.78-144.94 69.3zM945.22 624.64q0-47.84-58.14-99.38t-144.92-69.26q45.54 99.36 45.54 227.56h157.54v-58.88z" />
<glyph unicode="&#xe92e;" glyph-name="search-icon" data-tags="search-icon" d="M990.6 27.36l-243.34 253.38c60.253 71.257 96.88 164.178 96.88 265.653 0 0.073 0 0.146 0 0.219v-0.011c0 227.94-185.22 413.4-412.94 413.4s-412.84-185.46-412.84-413.4 185.22-413.48 412.84-413.48c0.332-0.001 0.725-0.002 1.117-0.002 88.255 0 169.958 28.050 236.68 75.722l-1.238-0.84 245.26-255.4c9.786-10.195 23.527-16.53 38.748-16.53 14.476 0 27.613 5.73 37.268 15.045l-0.016-0.015c10.196 9.837 16.527 23.62 16.527 38.881 0 14.525-5.735 27.711-15.064 37.416l0.017-0.018zM431.2 852.12c168.3 0 305.22-137.1 305.22-305.54s-136.94-305.58-305.22-305.58-305.2 137-305.2 305.6 136.98 305.52 305.2 305.52z" />
<glyph unicode="&#xe92f;" glyph-name="star-icon" data-tags="star-icon" d="M1024 554.3l-354.060 47.46-157.94 295.28-157.94-295.28-354.060-47.46 256.22-230.44-60.38-324.9 316.16 153.36 316.14-153.36-60.36 324.9 256.22 230.44z" />
<glyph unicode="&#xe930;" glyph-name="star-icon-outline" data-tags="star-icon-outline" d="M828.14-1.040l-316.14 153.36-316.16-153.36 60.38 324.9-256.22 230.42 354 47.46 158 295.3 158-295.28 354-47.46-256.24-230.44zM512 162l1.88-0.92 302.68-146.82-58.16 312.76 246 221.2-340 45.58-1.040 2-151.36 282.96-152.42-284.96-2.18-0.3-337.76-45.28 246-221.2-58.22-312.84z" />
<glyph unicode="&#xe931;" glyph-name="upload" data-tags="upload" d="M0 769.5v-643h1024v643zM204.8 692.34c0.107 0.001 0.233 0.001 0.36 0.001 42.614 0 77.16-34.546 77.16-77.16s-34.546-77.16-77.16-77.16c-42.614 0-77.16 34.545-77.16 77.159v0c0 0.054 0 0.117 0 0.18 0 42.452 34.363 76.878 76.79 76.98h0.010zM486.4 203.66h-409.6l204.8 308.64 112.4-169.52 220.4 272.4 332.8-411.52z" />
<glyph unicode="&#xe932;" glyph-name="upload-icon" data-tags="upload-icon" d="M881.78 352.46v-241.72h-739.78v241.72h-142v-312.78c0-0.012 0-0.026 0-0.040 0-39.201 31.779-70.98 70.98-70.98 0.077 0 0.155 0 0.232 0h881.588c0.042 0 0.091 0 0.14 0 39.231 0 71.037 31.792 71.060 71.018v312.782zM525 918l203.48-246s31.040-29.18-2.6-29.18h-114.68v-358.1s4.68-17.4-21.72-17.4h-161.36c-18.98 0-18.62 14.66-18.62 14.66v353.42h-105.86c-40.7 0-10 30.54-10 30.54s173.1 230.060 197.42 254.18c17.4 17.4 34-2 34-2z" />
<glyph unicode="&#xe933;" glyph-name="reviewer-icon" data-tags="reviewer-icon" d="M907.78 843.78l-120 16-53.6 100.22-53.56-100.12-120-16 86.88-78.14-12.26-66c-20 85.86-96.56 150-188.42 150-0.048 0-0.104 0-0.16 0-107.232 0-194.16-86.928-194.16-194.16s86.928-194.16 194.16-194.16c107.232 0 194.16 86.928 194.16 194.16 0 0.007 0 0.014 0 0.021v-0.001c0 2.16-0.56 4.18-0.64 6.32l94.12 45.66 107.2-52-20.6 110.080zM529.020 448h-164.52c-136.9 0-248.28-111.44-248.28-248.52v-201.48l0.52-3.16 13.86-4.34c130.64-40.86 244.14-54.5 337.56-54.5 182.46 0 288.22 52 294.74 55.42l12.94 6.56h1.38v201.5c0.060 137.080-111.22 248.52-248.2 248.52z" />
<glyph unicode="&#xe934;" glyph-name="social-media" data-tags="social-media" d="M805.54 500c-0.24-0.003-0.522-0.005-0.806-0.005-39.621 0-71.74 32.119-71.74 71.74 0 21.022 9.042 39.932 23.448 53.053l0.057 0.052c3.626 3.305 5.893 8.048 5.893 13.32 0 4.241-1.467 8.14-3.921 11.216l0.028-0.036c-15.339 19.432-32.211 36.494-50.794 51.526l-0.606 0.474c-3.056 2.471-6.99 3.967-11.273 3.967-5.307 0-10.078-2.297-13.373-5.951l-0.014-0.016c-19.34-21.44-54-29.42-80.92-18.2-26.046 11.281-43.937 36.764-43.937 66.425 0 1.448 0.043 2.885 0.127 4.312l-0.009-0.197c0.021 0.325 0.033 0.705 0.033 1.088 0 9.248-6.974 16.867-15.951 17.885l-0.082 0.008c-11.217 1.379-24.202 2.166-37.371 2.166-12.546 0-24.924-0.714-37.098-2.104l1.489 0.138c-9.050-1.034-16.014-8.649-16.014-17.89 0-0.25 0.005-0.498 0.015-0.745l-0.001 0.035c0.030-0.773 0.046-1.681 0.046-2.592 0-29.885-18.131-55.534-43.994-66.549l-0.473-0.179c-26.52-10.86-61.020-2.94-80.32 18.3-3.304 3.621-8.044 5.884-13.312 5.884-4.236 0-8.13-1.463-11.205-3.912l0.037 0.028c-19.629-15.502-36.858-32.572-52.017-51.381l-0.483-0.619c-2.46-3.064-3.949-7.001-3.949-11.285 0-5.312 2.289-10.090 5.934-13.402l0.015-0.013c14.567-13.225 23.676-32.236 23.676-53.374 0-9.992-2.035-19.508-5.714-28.157l0.178 0.471c-11.2-26.7-38.9-44-70.6-44-0.351 0.025-0.76 0.039-1.173 0.039-9.179 0-16.72-7.010-17.562-15.969l-0.005-0.070c-1.394-11.319-2.19-24.421-2.19-37.709 0-12.602 0.716-25.037 2.109-37.267l-0.138 1.496c1.020-9.16 12-16 21.28-16 28.26 0.72 55.38-16.78 66.76-44.5 3.33-8.014 5.264-17.322 5.264-27.082 0-21.050-8.996-39.999-23.353-53.212l-0.051-0.046c-3.621-3.304-5.884-8.044-5.884-13.312 0-4.236 1.463-8.13 3.912-11.205l-0.028 0.037c15.324-19.426 32.169-36.487 50.719-51.529l0.601-0.471c3.060-2.483 7.003-3.986 11.296-3.986 5.316 0 10.094 2.305 13.389 5.969l0.015 0.016c19.4 21.5 54.14 29.46 80.88 18.22 26.085-11.208 44.021-36.68 44.021-66.342 0-1.47-0.044-2.93-0.131-4.378l0.010 0.199c-0.021-0.325-0.033-0.705-0.033-1.088 0-9.248 6.974-16.867 15.951-17.885l0.082-0.008c11.22-1.383 24.207-2.172 37.378-2.172 12.55 0 24.933 0.716 37.109 2.111l-1.488-0.139c9.050 1.034 16.014 8.649 16.014 17.89 0 0.25-0.005 0.498-0.015 0.745l0.001-0.035c-0.030 0.779-0.047 1.694-0.047 2.614 0 29.863 18.125 55.493 43.975 66.488l0.473 0.179c26.7 10.92 61.040 2.94 80.34-18.3 3.322-3.596 8.061-5.841 13.325-5.841 4.225 0 8.112 1.446 11.194 3.87l-0.039-0.029c19.621 15.511 36.849 32.581 52.017 51.381l0.483 0.619c2.477 3.058 3.977 6.996 3.977 11.285 0 5.312-2.301 10.086-5.96 13.381l-0.016 0.014c-14.599 13.188-23.734 32.187-23.734 53.32 0 39.632 32.128 71.76 71.76 71.76 0.061 0 0.123 0 0.184 0h-0.010l4-0.1c0.325-0.021 0.705-0.033 1.088-0.033 9.248 0 16.867 6.974 17.885 15.951l0.008 0.082c1.397 11.33 2.195 24.446 2.195 37.748 0 12.617-0.717 25.066-2.113 37.309l0.139-1.497c-1.020 9.2-11.66 16-20.86 16zM504.5 338.94c-0.042 0-0.091 0-0.14 0-59.846 0-108.36 48.514-108.36 108.36s48.514 108.36 108.36 108.36c59.846 0 108.36-48.514 108.36-108.36v0c-0.023-59.787-48.444-108.258-108.21-108.36h-0.010zM226.98 800.38l69.72-39.62 113.3 199.24c-9.38-2-18.42-3.54-27.62-6-257.6-70.9-414-327.16-365.4-585.2l61.44 16.92c-27.94 157.92 32.32 314.28 148.56 414.66zM788.64 889.68l-30.78-55.68c132.54-90.4 202.46-242.76 193.080-396l-77.060-22.24 63.54-220.18c5.18 8 10.34 15.64 14.96 24 129.14 233.82 54.88 524.68-163.74 670.1zM286.62 61.74l15.12 78.76-225.060 43.2c4.84-8.28 9.26-16.3 14.62-24.22 150-221.14 442.86-286.84 671.58-158l-35.76 52.72c-140.64-77.080-308.18-70.3-440.5 7.54z" />
<glyph unicode="&#xe935;" glyph-name="account" data-tags="account" d="M358 521.020h240.84c55.228 0 100 44.772 100 100v0 80.2c0 55.228-44.772 100-100 100v0h-240.84c-55.228 0-100-44.772-100-100v0-80.28c-0.001-0.125-0.001-0.273-0.001-0.421 0-54.952 44.548-99.5 99.5-99.5 0.176 0 0.352 0 0.528 0.001h-0.027zM298.22 701.22c0.125 32.965 26.815 59.655 59.768 59.78h240.852c32.965-0.125 59.655-26.815 59.78-59.768v-80.292c-0.125-32.965-26.815-59.655-59.768-59.78h-240.852c-32.965 0.125-59.655 26.815-59.78 59.768v0.012zM418.64 680.72h120.42c10.797 0.123 19.517 8.843 19.64 19.628v0.012c-0.433 10.668-8.972 19.207-19.6 19.639l-0.040 0.001h-120.42c-10.847 0-19.64-8.793-19.64-19.64s8.793-19.64 19.64-19.64v0zM358 600.44h160.56c10.77 0.122 19.473 8.797 19.64 19.544v0.016c-0.433 10.668-8.972 19.207-19.6 19.639l-0.040 0.001h-160.56c-10.847 0-19.64-8.793-19.64-19.64s8.793-19.64 19.64-19.64v0zM598.84 600.44c10.797 0.123 19.517 8.843 19.64 19.628v0.012c-0.433 10.668-8.972 19.207-19.6 19.639l-0.040 0.001c-10.847 0-19.64-8.793-19.64-19.64s8.793-19.64 19.64-19.64v0zM939.6 291.28l-140 140v104.2l110.18 64c6.068 3.658 10.063 10.213 10.063 17.701 0 3.519-0.882 6.831-2.437 9.729l0.054-0.11-117.92 203.38v30.76c-0.122 10.763-8.786 19.462-19.523 19.64h-381.017v19.64c-0.125 32.965-26.815 59.655-59.768 59.78h-121.232c-32.991-0.091-59.715-26.794-59.84-59.768v-19.652h-59.78c-10.797-0.123-19.517-8.843-19.64-19.628v-825.892c0.123-10.797 8.843-19.517 19.628-19.64h140.012v-59.78c0.123-10.79 8.831-19.506 19.607-19.64h120.433c10.797 0.123 19.517 8.843 19.64 19.628v59.792h380.98c10.797 0.123 19.517 8.843 19.64 19.628v87.132l140 140c8.62 8.6 8.62 21.42 0.92 29.1zM798.7 750.76l72.6-126.4-72.6-41.84zM157.3 55.56h-40.14v785.72h40.14zM338.36 921.56c10.77-0.122 19.473-8.797 19.64-19.544v-19.656h-80.28v19.64c0.012 0.416 0.019 0.906 0.019 1.397 0 6.565-1.263 12.835-3.559 18.581l0.119-0.338zM197.44 902c0.123 10.797 8.843 19.517 19.628 19.64h0.012c10.668-0.433 19.207-8.972 19.639-19.6l0.001-0.040v-19.64h-40.14l0.86 19.64zM358-24.72h-80.28v40.14h80.28zM759.4 55.56h-562v785.72h562zM798.68 179.4v195.58l97.32-97.36zM679.12 195.62v-59.78h-59.78c-10.797-0.123-19.517-8.843-19.64-19.628v-0.012c0.433-10.668 8.972-19.207 19.6-19.639l0.040-0.001h80.28c10.797 0.123 19.517 8.843 19.64 19.628v80.292c-0.123 10.797-8.843 19.517-19.628 19.64h-0.012c-11.131-0.463-20.037-9.37-20.499-20.457l-0.001-0.043zM258 95.7h80.28c10.797 0.123 19.517 8.843 19.64 19.628v0.012c-0.433 10.668-8.972 19.207-19.6 19.639l-0.040 0.001h-59.7v59.8c-0.123 10.797-8.843 19.517-19.628 19.64h-0.012c-10.668-0.433-19.207-8.972-19.639-19.6l-0.001-0.040v-80.28c-1.72-9.4 7.68-18.8 18.7-18.8zM478.42 308.36c-10.668 0.231-19.227 8.934-19.227 19.636 0 10.847 8.793 19.64 19.64 19.64 5.534 0 10.533-2.288 14.102-5.971l0.005-0.005c3.693-4.368 9.176-7.123 15.303-7.123 11.046 0 20 8.954 20 20 0 6.127-2.755 11.61-7.094 15.279l-0.029 0.024c-6.121 6.211-13.521 11.144-21.775 14.373l-0.425 0.147v3.42c-0.123 10.797-8.843 19.517-19.628 19.64h-0.012c-10.668-0.433-19.207-8.972-19.639-19.6l-0.001-0.040v-3.42c-23.060-8.54-40.14-30.74-40.14-56.36 0.125-32.965 26.815-59.655 59.768-59.78h0.012c10.797-0.123 19.517-8.843 19.64-19.628v-0.012c-0.433-10.668-8.972-19.207-19.6-19.639l-0.040-0.001c-0.070-0.001-0.153-0.001-0.236-0.001-5.594 0-10.651 2.297-14.281 5.998l-0.003 0.003c-3.693 4.368-9.176 7.123-15.303 7.123-11.046 0-20-8.954-20-20 0-6.127 2.755-11.61 7.094-15.279l0.029-0.024c6.236-6.016 13.599-10.916 21.733-14.345l0.467-0.175v-3.42c0.123-10.797 8.843-19.517 19.628-19.64h0.012c10.636 0.463 19.139 8.98 19.579 19.579l0.001 0.041v2.56c23.060 8.54 40.14 30.74 40.14 56.36 0.001 0.149 0.002 0.325 0.002 0.501 0 33.067-26.688 59.902-59.7 60.138h-0.022z" />
<glyph unicode="&#xe936;" glyph-name="Admin_Icon" data-tags="Admin_Icon" d="M935.080 415.26c-0.175-0.002-0.382-0.004-0.589-0.004-24.51 0-44.38 19.87-44.38 44.38 0 12.98 5.572 24.658 14.454 32.773l0.034 0.031c2.221 2.027 3.608 4.933 3.608 8.164 0 2.556-0.869 4.909-2.327 6.781l0.018-0.025c-9.756 11.897-20.163 22.506-31.434 32.131l-0.346 0.289c-4.54 3.9-11.020 3.24-15.56-1.3-11.68-12.98-33.72-18.16-50-11.020-16.177 6.953-27.3 22.752-27.3 41.148 0 0.813 0.022 1.622 0.065 2.424l-0.005-0.112c0.025 0.273 0.039 0.591 0.039 0.912 0 5.602-4.257 10.21-9.713 10.764l-0.046 0.004c-6.817 0.929-14.697 1.46-22.7 1.46s-15.882-0.53-23.604-1.558l0.904 0.098c-5.501-0.558-9.759-5.166-9.759-10.768 0-0.321 0.014-0.639 0.041-0.953l-0.003 0.041c0.022-0.525 0.035-1.141 0.035-1.76 0-18.382-11.091-34.173-26.945-41.048l-0.289-0.112c-16.22-6.48-37.62-2-50 11.020-2.027 2.221-4.933 3.608-8.164 3.608-2.556 0-4.909-0.869-6.781-2.327l0.025 0.018c-12.142-9.579-22.769-20.194-32.055-31.92l-0.305-0.4c-0.64-1.3-0.64-2-1.3-3.24 49.572-10.324 92.814-32.649 128.055-63.816l-0.295 0.256c8.635 4.716 18.882 7.572 29.776 7.779l0.064 0.001c0.030 0 0.065 0 0.1 0 36.837 0 66.7-29.863 66.7-66.7 0-0.035 0-0.070 0-0.105v0.005c0.001-0.098 0.001-0.214 0.001-0.331 0-18.474-7.705-35.149-20.077-46.986l-0.024-0.023c11.562-28.165 18.633-60.813 19.454-95.009l0.006-0.331c2.754 0.584 5.919 0.919 9.162 0.919 12.929 0 24.615-5.32 32.989-13.89l0.009-0.009c2.027-2.221 4.933-3.608 8.164-3.608 2.556 0 4.909 0.869 6.781 2.327l-0.025-0.018c12.183 9.61 22.844 20.265 32.153 32.038l0.307 0.402c3.9 4.54 3.24 11.020-1.3 15.56-14.26 12.98-18.8 33.080-11.020 50 7.075 15.952 22.649 26.939 40.822 27.24h2.638c0.273-0.025 0.591-0.039 0.912-0.039 5.602 0 10.21 4.257 10.764 9.713l0.004 0.046c0.929 6.818 1.459 14.697 1.459 22.7s-0.53 15.883-1.558 23.605l0.098-0.905c-0.080 5.14-6.56 9.68-11.74 9.68zM445.44 525.5c0.006 0 0.013 0 0.020 0 119.989 0 217.26 97.271 217.26 217.26s-97.271 217.26-217.26 217.26c-119.989 0-217.26-97.271-217.26-217.26 0-0.007 0-0.014 0-0.021v0.001c0.64-119.96 97.92-217.24 217.24-217.24zM780 194.76c0.006-0.141 0.010-0.306 0.010-0.472 0-5.691-4.199-10.401-9.669-11.2l-0.061-0.007c-7.14-0.64-14.92-1.3-22-1.3-7.78 0-15.56 0.64-23.34 1.3-5.501 0.558-9.759 5.166-9.759 10.768 0 0.321 0.014 0.639 0.041 0.953l-0.003-0.041c0.061 0.864 0.095 1.871 0.095 2.887 0 18.241-11.16 33.875-27.025 40.446l-0.29 0.107c-16.22 7.14-38.26 2-50-11.020-2.055-2.376-5.074-3.871-8.442-3.871-2.715 0-5.203 0.971-7.136 2.585l0.018-0.014c-11.932 9.588-22.375 20.234-31.457 31.986l-0.323 0.434c-1.585 1.818-2.552 4.212-2.552 6.831 0 3.256 1.493 6.163 3.833 8.074l0.019 0.015c8.873 8.207 14.41 19.911 14.41 32.908 0 6.166-1.246 12.041-3.5 17.386l0.11-0.294c-6.834 16.133-22.536 27.245-40.832 27.245-0.235 0-0.469-0.002-0.703-0.005h0.035c-5.84 0-12.32 3.9-12.98 9.72-0.929 6.818-1.459 14.697-1.459 22.7s0.53 15.883 1.558 23.605l-0.098-0.905c0.361 5.483 4.896 9.794 10.439 9.794 0.437 0 0.869-0.027 1.292-0.079l-0.051 0.005c19.46 0 36.96 10.38 43.46 27.24 2.144 5.051 3.39 10.926 3.39 17.092 0 12.997-5.537 24.7-14.381 32.881l-0.030 0.027c-1.888 1.822-3.060 4.374-3.060 7.2 0 1.633 0.392 3.175 1.086 4.537l-0.026-0.057c-15.945 3.206-34.313 5.087-53.104 5.18h-184.156c-153.040 0-277.56-124.52-277.56-278.22v-225.78l0.64-3.24 15.56-5.2c146-46 273.020-60.96 378-60.96 204.28 0 322.32 58.36 330 62.26l14.26 7.14h1.3v225.68c0 2.6-0.64 4.54-0.64 6.48-2.6-0.64-5.18-0.64-7.14-2-17.32-5.14-28.36-22-27.78-40.8zM681.5 382.18c0-0.030 0-0.065 0-0.1 0-36.837 29.863-66.7 66.7-66.7 0.035 0 0.070 0 0.105 0h-0.005c0.219-0.003 0.478-0.004 0.737-0.004 18.028 0 34.315 7.454 45.947 19.448l0.016 0.016c-17.693 42.388-43.693 78.167-76.197 106.722l-0.323 0.278c-21.42-11.68-36.98-33.72-36.98-59.66z" />
<glyph unicode="&#xe937;" glyph-name="report_1" data-tags="report_1" d="M292.94 702.54h-277.9c-8.306 0-15.040-6.734-15.040-15.040v0-658c0-8.306 6.734-15.040 15.040-15.040v0h277.9c8.306 0 15.040 6.734 15.040 15.040v0 658.78c-0.62 7.884-7.078 14.071-15.022 14.26h-0.018zM277.9 44.54h-247.9v628.7h248.6l-0.8-628.62zM877.22 678.78c-1.678 6.576-7.548 11.36-14.536 11.36-1.020 0-2.017-0.102-2.98-0.296l0.096 0.016-205.8-49.080c-1.546-0.015-2.949-0.613-4.004-1.584l0.004 0.004v242.26c0 8.306-6.734 15.040-15.040 15.040v0h-277.9c-0.006 0-0.013 0-0.020 0-8.306 0-15.040-6.734-15.040-15.040v0-851.1c0-8.306 6.734-15.040 15.040-15.040h277.92c8.306 0 15.040 6.734 15.040 15.040v0 565.3l139.34-585.080c0.69-3.798 3.049-6.934 6.275-8.668l0.065-0.032c2.128-1.493 4.772-2.385 7.625-2.385 0.132 0 0.263 0.002 0.394 0.006h3.141l205.84 49.080c8 1.58 12.66 10.3 11.080 18.2zM620 44.62h-248.68v821.8h248.68zM814.68 32l-139.34 584.24 176.56 42 139.34-584.24zM153.6 254.42c52.467 0 95 42.533 95 95s-42.533 95-95 95c-52.467 0-95-42.533-95-95v0c0.159-52.403 42.597-94.841 94.985-95h0.015zM153.6 415.94c36.296 0 65.72-29.424 65.72-65.72s-29.424-65.72-65.72-65.72c-36.296 0-65.72 29.424-65.72 65.72v0c0 35.62 30.12 65.78 65.72 65.78zM73.64 57.28h160.72c8.306 0 15.040 6.734 15.040 15.040v0 60.18c0 8.306-6.734 15.040-15.040 15.040h-160.72c-8.306 0-15.040-6.734-15.040-15.040v0-60.18c0.288-8.188 6.852-14.752 15.013-15.039l0.027-0.001zM87.9 118.24h131.42v-30.88h-131.44zM73.64 534.7h160.72c8.306 0 15.040 6.734 15.040 15.040v0 59.38c0 8.306-6.734 15.040-15.040 15.040h-160.72c-8.306 0-15.040-6.734-15.040-15.040v0-60.18c0.341-7.947 6.867-14.261 14.867-14.261 0.061 0 0.121 0 0.182 0.001h-0.009zM87.9 594.88h131.42v-30.88h-131.44zM496.4 320.92c52.467 0 95 42.533 95 95s-42.533 95-95 95c-52.439 0-94.954-42.487-95-94.916v-0.004c0.159-52.403 42.597-94.841 94.985-95h0.015zM496.4 482.44c36.296 0 65.72-29.424 65.72-65.72s-29.424-65.72-65.72-65.72c-36.296 0-65.72 29.424-65.72 65.72v0c0 0.048 0 0.104 0 0.16 0 36.208 29.352 65.56 65.56 65.56 0.056 0 0.113 0 0.169 0h-0.009zM415.66 57.28h160.72c8.306 0 15.040 6.734 15.040 15.040v0 60.18c0 8.306-6.734 15.040-15.040 15.040v0h-160.72c-8.306 0-15.040-6.734-15.040-15.040v0-60.18c0.288-8.188 6.852-14.752 15.013-15.039l0.027-0.001zM430.7 118.24h131.42v-30.88h-131.42zM415.66 746h160.72c8.306 0 15.040 6.734 15.040 15.040v0 60.26c0 8.306-6.734 15.040-15.040 15.040v0h-160.72c-8.306 0-15.040-6.734-15.040-15.040v0-60.18c0-8.306 6.734-15.040 15.040-15.040v0zM430.7 806.18h131.42v-30.8h-131.42zM817.84 410.4c-17.636-4.070-32.187-14.974-40.998-29.707l-0.162-0.293c-6.352-9.711-10.131-21.604-10.131-34.38 0-5.796 0.778-11.41 2.235-16.744l-0.103 0.445c7.202-29.682 33.516-51.391 64.912-51.46h0.008c5.707 0.148 11.168 0.716 16.493 1.678l-0.653-0.098c29.859 7.178 51.705 33.653 51.705 65.231 0 5.51-0.665 10.865-1.92 15.988l0.095-0.459c-7.576 29.713-34.074 51.345-65.634 51.4h-0.006c-5.669-0.103-11.134-0.673-16.446-1.675l0.606 0.095zM870.1 353.4c0.671-2.619 1.056-5.625 1.056-8.721 0-7.348-2.169-14.19-5.902-19.92l0.086 0.141c-5.153-8.217-13.211-14.208-22.703-16.566l-0.257-0.054c-2.192-0.528-4.709-0.83-7.297-0.83-0.493 0-0.984 0.011-1.472 0.033l0.069-0.002c-0.041 0-0.089 0-0.137 0-17.492 0-32.174 12.027-36.229 28.263l-0.054 0.257c-0.672 2.621-1.058 5.63-1.058 8.729 0 7.337 2.162 14.168 5.884 19.892l-0.086-0.141c5.153 8.217 13.211 14.208 22.703 16.566l0.257 0.054c2.192 0.528 4.709 0.83 7.297 0.83 0.493 0 0.984-0.011 1.472-0.033l-0.069 0.002c16.62 0.8 31.66-11.080 36.42-28.5zM811.52 132.5c-1.184-2.29-1.879-4.998-1.879-7.869 0-1.136 0.109-2.246 0.316-3.321l-0.018 0.109 14.26-58.58c0.69-3.798 3.049-6.934 6.275-8.668l0.065-0.032c2.128-1.493 4.772-2.385 7.625-2.385 0.132 0 0.263 0.002 0.394 0.006h-0.019c0.145-0.016 0.313-0.025 0.482-0.025 1 0 1.928 0.308 2.694 0.835l-0.016-0.010 119.56 28.5c6.588 1.494 11.432 7.299 11.432 14.236 0 1.129-0.128 2.227-0.371 3.282l0.019-0.098-14.34 58.56c-1.678 6.576-7.548 11.36-14.536 11.36-1.020 0-2.017-0.102-2.98-0.296l0.096 0.016-119.56-28.5c-4.325-0.431-7.907-3.218-9.472-7.044l-0.028-0.076zM932.66 135.66l7.12-30-91.060-21.46-7.12 30zM828.94 625.74l-119.56-28.5c-3.95-0.895-7.26-3.174-9.467-6.291l-0.033-0.049c-1.184-2.29-1.879-4.998-1.879-7.869 0-1.136 0.109-2.246 0.316-3.321l-0.018 0.109 14.26-58.58c1.593-6.408 7.297-11.081 14.091-11.081 0.059 0 0.119 0 0.178 0.001h-0.009c0.145-0.016 0.313-0.025 0.482-0.025 1 0 1.928 0.308 2.694 0.835l-0.016-0.010 119.56 28.5c6.576 1.678 11.36 7.548 11.36 14.536 0 1.020-0.102 2.017-0.296 2.98l0.016-0.096-14.26 58.58c-1.493 6.248-7.030 10.822-13.634 10.822-1.348 0-2.651-0.19-3.884-0.546l0.099 0.024zM737.9 542.6l-7.12 30 91.020 21.4 7.12-30z" />
<glyph unicode="&#xe938;" glyph-name="camera-plus-icon" data-tags="camera-plus-icon" d="M484.26 366.2c0-82.533-71.33-149.44-159.32-149.44s-159.32 66.907-159.32 149.44c0 82.533 71.33 149.44 159.32 149.44s159.32-66.907 159.32-149.44zM1014.9 740.46h-85.68v85.68c0 0.006 0 0.013 0 0.020 0 5.015-4.065 9.080-9.080 9.080-0.007 0-0.014 0-0.021 0h-48.539c-0.006 0-0.013 0-0.020 0-5.015 0-9.080-4.065-9.080-9.080 0-0.007 0-0.014 0-0.021v0.001-85.68h-85.66c-0.006 0-0.013 0-0.020 0-5.015 0-9.080-4.065-9.080-9.080 0-0.007 0-0.014 0-0.021v0.001-48.54c0-0.007 0-0.015 0-0.023 0-1.401 0.317-2.727 0.884-3.912l-0.024 0.055h-476c0 59.78 0 59.78-15.8 59.78h-157.48c-18 0-18 0-18-59.78h-37.56c-35.24 0.020-63.74-26.72-63.74-59.76v-498.64c0-33.040 28.5-59.78 63.74-59.78h752.52c35.22 0 63.74 26.74 63.74 59.78v458.4h40.14c0.006 0 0.013 0 0.020 0 5.015 0 9.080 4.065 9.080 9.080 0 0.007 0 0.014 0 0.021v-0.001 85.68h85.68c0.006 0 0.013 0 0.020 0 5.015 0 9.080 4.065 9.080 9.080 0 0.007 0 0.014 0 0.021v-0.001 48.54c0 0.006 0 0.013 0 0.020 0 5.015-4.065 9.080-9.080 9.080-0.014 0-0.028 0-0.042 0h0.002zM862.48 660.32c-5.643 5.555-12.324 10.075-19.723 13.241l-0.417 0.159h20.14zM324.94 157c-122.94 0-223.060 93.86-223.060 209.2s100 209.22 223.040 209.22 223.080-93.86 223.080-209.22-100-209.2-223.060-209.2zM789.5 543.24h-127.5v59.78h127.46z" />
<glyph unicode="&#xe939;" glyph-name="cyclebin-icon" data-tags="cyclebin-icon" d="M170.72 49.58c0.238-62.633 50.947-113.342 113.557-113.58h455.423c62.664 0.159 113.421 50.915 113.58 113.565v682.915h-682.56zM711.020 903.040l-56.6 56.96h-284.48l-56.98-56.96h-199.2v-113.6h796.48v113.6h-199.22z" />
<glyph unicode="&#xe93a;" glyph-name="slim-delete-icon" data-tags="slim-delete-icon" d="M1024 901.5l-58.5 58.5-453.5-453.5-453.5 453.5-58.5-58.5 453.5-453.5-453.5-453.5 58.5-58.5 453.5 453.5 453.5-453.5 58.5 58.5-453.5 453.5 453.5 453.5z" />
<glyph unicode="&#xe93b;" glyph-name="thick-delete-icon" data-tags="thick-delete-icon" d="M670.48 448l347.24 347.26c3.862 3.862 6.251 9.197 6.251 15.090s-2.389 11.228-6.251 15.090l-128.3 128.3c-3.86 3.867-9.195 6.259-15.090 6.259s-11.23-2.392-15.090-6.259v0l-347.24-347.24-347.24 347.24c-3.93 3.71-9.243 5.991-15.090 5.991s-11.161-2.281-15.101-6.001l0.011 0.010-128.3-128.3c-3.862-3.862-6.251-9.197-6.251-15.090s2.389-11.228 6.251-15.090l347.24-347.26-347.24-347.2c-3.862-3.862-6.251-9.197-6.251-15.090s2.389-11.228 6.251-15.090l128.3-128.3c3.86-3.867 9.195-6.259 15.090-6.259s11.23 2.392 15.090 6.259v0l347.24 347.22 347.24-347.22c3.846-3.896 9.186-6.309 15.090-6.309s11.244 2.413 15.088 6.307l128.302 128.242c3.865 3.871 6.256 9.217 6.256 15.12s-2.39 11.249-6.256 15.12v0z" />
<glyph unicode="&#xe93c;" glyph-name="upload-icon_1" data-tags="upload-icon_1" d="M512 960c-282.32 0-512-229.68-512-512s229.68-512 512-512 512 229.68 512 512-229.68 512-512 512zM512-19.48c-257.78 0-467.48 209.7-467.48 467.48s209.7 467.48 467.48 467.48 467.48-209.7 467.48-467.48-209.7-467.48-467.48-467.48zM528.88 664.64c-2.083 2.070-4.551 3.756-7.287 4.941l-0.153 0.059h-0.18c-1.185 0.509-2.59 0.957-4.043 1.272l-0.157 0.028h-0.28c-1.428 0.302-3.069 0.475-4.75 0.475s-3.322-0.173-4.906-0.502l0.156 0.027c-0.46 0-0.9-0.28-1.36-0.4-1.217-0.292-2.245-0.621-3.239-1.016l0.159 0.056c-0.64-0.26-1.2-0.64-1.8-0.94-0.91-0.432-1.657-0.845-2.377-1.297l0.097 0.057c-1.179-0.811-2.211-1.659-3.166-2.586l0.006 0.006c-0.14-0.14-0.32-0.22-0.46-0.36v0l-190.84-190.84c-3.621-4.161-5.828-9.635-5.828-15.625 0-13.178 10.682-23.86 23.86-23.86 6.010 0 11.501 2.222 15.696 5.889l-0.028-0.024 150.12 150.12v-351.2c0-13.178 10.682-23.86 23.86-23.86s23.86 10.682 23.86 23.86v351.24l150.16-150.16c4.323-4.323 10.294-6.996 16.89-6.996 13.192 0 23.886 10.694 23.886 23.886 0 6.596-2.674 12.567-6.996 16.89v0z" />
<glyph unicode="&#xe93d;" glyph-name="reward-sort-down" data-tags="reward-sort-down" d="M897.74 98.76l-106 128.12s-16.16 15.18 1.36 15.18h59.7v550.98s-2.38 8.96 11.36 8.96h84c9.84 0 9.84-7.54 9.84-7.54v-548.46h55c21.2 0 5.22-15.9 5.22-15.9s-90.14-119.78-102.8-132.34c-9.060-9.060-17.68 1.080-17.68 1.080zM752 667.46c-7.742 7.918-18.532 12.827-30.469 12.827-0.278 0-0.556-0.003-0.833-0.008l0.042 0.001h-132.44v44c-0.159 40.496-33.007 73.266-73.517 73.3h-264.783c-40.513-0.045-73.358-32.806-73.54-73.283v-44.017h-132.34c-0.233 0.005-0.508 0.007-0.783 0.007-11.939 0-22.732-4.909-30.469-12.819l-0.008-0.008c-7.94-7.702-12.867-18.47-12.867-30.389 0-0.271 0.003-0.541 0.008-0.811l-0.001 0.040v-58.62q0-32.52 19.080-65.52c13.841-23.286 30.986-43.005 51.067-59.237l0.413-0.323q32.4-26.6 79.44-44.6c29.242-11.534 63.078-18.88 98.429-20.359l0.631-0.021c12.847-16.462 27.219-30.802 43.17-43.208l0.55-0.412q17.46-15.56 24.12-33.22c4.233-11.537 6.682-24.859 6.682-38.753 0-0.79-0.008-1.578-0.024-2.365l0.002 0.118q0-24.76-14-41.68t-44.82-16.96c-0.337 0.004-0.735 0.007-1.134 0.007-22.828 0-43.822-7.852-60.429-21.002l0.203 0.155q-26.88-20.86-26.88-52.46v-29.3c-0.005-0.135-0.007-0.294-0.007-0.453 0-7.787 6.313-14.1 14.1-14.1 0.214 0 0.426 0.005 0.637 0.014l-0.030-0.001h382.4c0.183-0.008 0.397-0.013 0.612-0.013 7.787 0 14.1 6.313 14.1 14.1 0 0.202-0.004 0.402-0.013 0.602l0.001-0.029v29.22q0 31.62-26.88 52.46c-16.409 12.995-37.408 20.847-60.241 20.847-0.415 0-0.829-0.003-1.242-0.008l0.063 0.001q-30.8 0-44.8 16.96t-14 41.68c-0.014 0.669-0.022 1.457-0.022 2.247 0 13.894 2.449 27.216 6.938 39.558l-0.256-0.805q6.74 17.66 24.14 33.18c16.468 12.792 30.813 27.099 43.235 42.982l0.405 0.538c36.007 1.528 69.851 8.909 101.224 21.214l-2.124-0.734q47.1 18 79.52 44.66c20.483 16.565 37.626 36.282 50.926 58.559l0.554 1.001q19.060 33 19.060 65.52v58.56c0.005 0.232 0.007 0.505 0.007 0.778 0 11.906-4.902 22.666-12.799 30.373l-0.009 0.008zM102.32 503.46q-43.5 38.54-43.48 74.22v44h117.66q0-95.76 34-170-64.8 13.28-108.24 51.78zM706 577.68q0-35.76-43.42-74.22t-108.24-51.78q34 74.22 34 170h117.66v-44z" />
<glyph unicode="&#xe93e;" glyph-name="reward-sort-up" data-tags="reward-sort-up" d="M897.74 797.24s8.62 10.14 17.68 1.080c12.58-12.56 102.8-132.32 102.8-132.32s16-16-5.22-16h-55v-548.46s0-7.54-9.8-7.54h-84c-13.74 0-11.32 9.040-11.32 9.040v550.96h-59.74c-17.52 0-1.36 15.18-1.36 15.18l106 128.12zM752 667.46c-7.742 7.918-18.532 12.827-30.469 12.827-0.278 0-0.556-0.003-0.833-0.008l0.042 0.001h-132.44v44c-0.159 40.496-33.007 73.266-73.517 73.3h-264.783c-40.513-0.045-73.358-32.806-73.54-73.283v-44.017h-132.34c-0.233 0.005-0.508 0.007-0.783 0.007-11.939 0-22.732-4.909-30.469-12.819l-0.008-0.008c-7.94-7.702-12.867-18.47-12.867-30.389 0-0.271 0.003-0.541 0.008-0.811l-0.001 0.040v-58.62q0-32.52 19.080-65.52c13.841-23.286 30.986-43.005 51.067-59.237l0.413-0.323q32.4-26.6 79.44-44.6c29.242-11.534 63.078-18.88 98.429-20.359l0.631-0.021c12.847-16.462 27.219-30.802 43.17-43.208l0.55-0.412q17.46-15.56 24.12-33.22c4.233-11.537 6.682-24.859 6.682-38.753 0-0.79-0.008-1.578-0.024-2.365l0.002 0.118q0-24.76-14-41.68t-44.82-16.96c-0.337 0.004-0.735 0.007-1.134 0.007-22.828 0-43.822-7.852-60.429-21.002l0.203 0.155q-26.88-20.86-26.88-52.46v-29.3c-0.005-0.135-0.007-0.294-0.007-0.453 0-7.787 6.313-14.1 14.1-14.1 0.214 0 0.426 0.005 0.637 0.014l-0.030-0.001h382.4c0.183-0.008 0.397-0.013 0.612-0.013 7.787 0 14.1 6.313 14.1 14.1 0 0.202-0.004 0.402-0.013 0.602l0.001-0.029v29.22q0 31.62-26.88 52.46c-16.409 12.995-37.408 20.847-60.241 20.847-0.415 0-0.829-0.003-1.242-0.008l0.063 0.001q-30.8 0-44.8 16.96t-14 41.68c-0.014 0.669-0.022 1.457-0.022 2.247 0 13.894 2.449 27.216 6.938 39.558l-0.256-0.805q6.74 17.66 24.14 33.18c16.468 12.792 30.813 27.099 43.235 42.982l0.405 0.538c36.007 1.528 69.851 8.909 101.224 21.214l-2.124-0.734q47.1 18 79.52 44.66c20.483 16.565 37.626 36.282 50.926 58.559l0.554 1.001q19.060 33 19.060 65.52v58.56c0.005 0.232 0.007 0.505 0.007 0.778 0 11.906-4.902 22.666-12.799 30.373l-0.009 0.008zM102.32 503.46q-43.5 38.54-43.48 74.22v44h117.66q0-95.76 34-170-64.8 13.28-108.24 51.78zM706 577.68q0-35.76-43.42-74.22t-108.24-51.78q34 74.22 34 170h117.66v-44z" />
<glyph unicode="&#xe93f;" glyph-name="configure" data-tags="configure" d="M880 200l-229.76 212 55.6 51.22c-17.175 13.227-31.957 28.384-44.383 45.373l-0.437 0.627-188-173.28-346 318.88h494c1.631 22.963 6.524 44.305 14.232 64.246l-0.512-1.506h-601.74c-18.2 0-33-14-33-31.38v-579.54c0-17.3 14.8-31.38 33-31.38h880c18.2 0 33 14 33 31.38v337.14c-19.048-10.801-41.173-19.061-64.633-23.562l-1.367-0.218zM66 623.82l229.8-211.82-229.8-212zM93.34 138l249.74 230.36 106.92-98.6c6.023-5.516 14.082-8.896 22.93-8.896s16.907 3.38 22.956 8.919l-0.026-0.023 106.98 98.6 249.9-230.36zM840.9 820.74c-101.123 0-183.1-81.977-183.1-183.1s81.977-183.1 183.1-183.1c101.123 0 183.1 81.977 183.1 183.1v0c-0.125 101.073-82.027 182.975-183.088 183.1h-0.012zM911.18 748.18l-70.28-70.3-70.28 70.3c41.96 26.86 98.62 26.82 140.56 0zM710 637.64c-0.001 0.141-0.001 0.307-0.001 0.474 0 25.919 7.63 50.056 20.766 70.288l-0.306-0.502 70.28-70.26-70.28-70.3c-12.831 19.759-20.461 43.925-20.461 69.874 0 0.15 0 0.3 0.001 0.45v-0.023zM770.7 527.1l70.3 70.26 70.28-70.28c-42.040-26.84-98.68-26.86-140.68 0.020zM951.54 567.34l-70.28 70.3 70.28 70.26c12.846-19.891 20.481-44.194 20.481-70.28s-7.635-50.389-20.793-70.796l0.312 0.516z" />
<glyph unicode="&#xe940;" glyph-name="rotate-icon" data-tags="rotate-iconfgf" d="M310 716.4l-310-310.020 310-310.26 310.28 310.26zM123.080 406.4l186.92 186.9 187.14-186.94-187.14-187.14zM901.64 708.92c-110.64 110.64-242 147.32-382.14 103.26l0.18 81.12-147.5-147.5 147.32-130.38 0.18 93.72c110.4 36.66 219.72 14.5 308.2-74 121.36-121.36 121.36-320.24 0-441.6-108.1-108.12-256.88-108.18-377.060-47.4l-73.12-76c165.84-94.6 370.32-99.7 524 49.68 164.3 159.7 161.96 427.080-0.060 589.1z" />
<glyph unicode="&#xe941;" d="M137.4 404.12c-0.275 0.005-0.6 0.008-0.925 0.008-15.866 0-30.203-6.542-40.463-17.075l-0.012-0.012c-10.416-10.079-16.881-24.185-16.881-39.801 0-0.541 0.008-1.080 0.023-1.618l-0.002 0.079c-0.004-0.26-0.007-0.567-0.007-0.874 0-15.863 6.542-30.197 17.074-40.454l0.012-0.012c10.079-10.416 24.185-16.881 39.801-16.881 0.541 0 1.080 0.008 1.618 0.023l-0.079-0.002c32.178 0.129 58.214 26.244 58.214 58.44 0 16.136-6.54 30.745-17.114 41.321v0c-10.070 10.414-24.167 16.88-39.774 16.88-0.522 0-1.043-0.007-1.562-0.022l0.076 0.002z" />
<glyph unicode="&#xe942;" d="M253.34 716.12l-126.32-126.78 156.12-155.42-48.5-48.96 97.68-97h58.44l-0.94 428.62-136.48-0.46z" />
<glyph unicode="&#xe943;" d="M1018.44 527.68c-0.504 26.618-22.2 48.003-48.892 48.003-0.186 0-0.371-0.001-0.556-0.003h0.028l-486.82-7.4c-5.137-0.050-10.062-0.88-14.688-2.377l0.348 0.097-0.44 179.64c-0.091 26.875-21.847 48.638-48.71 48.74h-0.010l-370-0.94c-0.284 0.006-0.618 0.010-0.953 0.010-13.15 0-25.017-5.494-33.43-14.312l-0.017-0.018c-8.826-8.555-14.304-20.519-14.304-33.763 0-0.21 0.001-0.419 0.004-0.628v0.032l1.16-486.76c-0.002-0.179-0.004-0.391-0.004-0.603 0-13.264 5.486-25.248 14.312-33.805l0.012-0.012c8.569-8.838 20.552-14.324 33.816-14.324 0.205 0 0.41 0.001 0.615 0.004h-0.031l370 0.94c0.125-0.001 0.272-0.002 0.42-0.002 6.663 0 13.009 1.361 18.773 3.82l-0.313-0.119 0.98-64.9c0.504-26.618 22.2-48.003 48.892-48.003 0.186 0 0.371 0.001 0.556 0.003h-0.028l486.84 7.28c26.618 0.504 48.003 22.2 48.003 48.892 0 0.186-0.001 0.371-0.003 0.556v-0.028zM427.24 252.16c-1.743-1.835-4.196-2.982-6.917-3h-0.003l-370.44-0.92c-2.681 0.016-5.114 1.063-6.925 2.765l0.005-0.005c-1.826 1.747-2.96 4.204-2.96 6.925 0 0.026 0 0.053 0 0.079v-0.004l-1.2 486.76c0.016 2.681 1.063 5.114 2.765 6.925l-0.005-0.005c1.745 1.844 4.208 2.993 6.939 3l370.421 0.94c2.69-0.022 5.129-1.076 6.945-2.785l-0.005 0.005c1.835-1.743 2.982-4.196 3-6.917v-0.003l1.14-486.82c-0.017-2.687-1.064-5.126-2.765-6.946l0.005 0.006zM982.42 150.16c-1.686-1.795-4.054-2.934-6.688-3h-0.012l-486.82-7.38c-2.681 0.016-5.114 1.063-6.925 2.765l0.005-0.005c-1.799 1.684-2.938 4.053-3 6.689v0.011l-5.56 370c0.066 2.625 1.112 4.994 2.785 6.765l-0.005-0.005c1.686 1.795 4.054 2.934 6.688 3h0.012l486.82 7.4c2.684-0.019 5.118-1.074 6.925-2.784l-0.005 0.004c1.808-1.68 2.955-4.050 3.020-6.688v-0.012l5.54-370c-0.017-2.684-1.073-5.118-2.784-6.925l0.004 0.005z" />
<glyph unicode="&#xe944;" d="M572.74 374.8c31.524 0.658 56.827 26.368 56.827 57.988 0 32.033-25.967 58-58 58s-58-25.967-58-58c0-16.315 6.736-31.056 17.579-41.595l0.014-0.013c10.261-10.14 24.372-16.403 39.946-16.403 0.575 0 1.147 0.009 1.718 0.025l-0.084-0.002z" />
<glyph unicode="&#xe945;" d="M815.22 446.62l-153.58-157.98-49.42 47.82-95.84-98.84 0.92-58.44 428.4 6.48-2.080 136.48-128.4 124.48z" />
<glyph unicode="&#xe946;" d="M774.8 682.4c0.006 0.478 0.010 1.042 0.010 1.607 0 71.3-57.8 129.1-129.1 129.1s-129.1-57.8-129.1-129.1c0-0.565 0.004-1.129 0.011-1.692l-0.001 0.086c0 50.888 41.252 92.14 92.14 92.14s92.14-41.252 92.14-92.14v-18.4h-36.9l73.9-74 73.9 74h-37z" />
<glyph unicode="&#xe947;" d="M286.36 149.16c0.639-35.229 29.348-63.543 64.67-63.543s64.031 28.313 64.669 63.483l0.001 0.060c-0.539-25.099-21.012-45.239-46.19-45.239s-45.651 20.14-46.189 45.189l-0.001 0.050v9.24h18.48l-36.96 36.96-36.84-36.96h18.46z" />
</font>
</defs>
</svg>
